<svg width="20" height="20" xmlns="http://www.w3.org/2000/svg" fill-rule="evenodd" clip-rule="evenodd" stroke-linejoin="round" stroke-miterlimit="1.414"><g fill-rule="nonzero"><path d="M13.81 1.007c0 .275-.098.515-.294.718-.196.204-.435.306-.718.306-.218 0-.488-.114-.81-.344-.326-.23-.602-.345-.827-.345-.423 0-.77.097-1.04.287-.27.19-.497.505-.684.945-.186.44-.43 1.365-.732 2.776-.102.493-.183.873-.24 1.142h2.138c.07 0 .117.02.14.06.022.04.033.124.033.255 0 .132-.033.253-.1.365-.068.11-.137.167-.208.167l-2.177-.04-1.6 6.774c-.275 1.19-.646 2.22-1.11 3.097-.467.876-1.003 1.564-1.61 2.063-.607.498-1.19.748-1.748.748-.456 0-.846-.117-1.17-.35-.325-.233-.487-.503-.487-.812 0-.564.276-.847.828-.847.23 0 .51.147.838.443.33.295.608.443.84.443.404 0 .717-.16.938-.483.222-.32.442-1.014.66-2.077l1.83-8.762v-.07c0-.11-.064-.166-.192-.166h-1.54c-.117 0-.175-.086-.175-.256 0-.105.072-.184.213-.237 1.323-.157 1.997-.36 2.023-.61.2-.998.596-1.997 1.19-2.998.594-1 1.266-1.78 2.018-2.338.75-.56 1.518-.838 2.302-.838.982 0 1.474.328 1.474.985zM19.435 6.923c0 .335-.074.606-.22.813-.15.206-.348.31-.6.31-.262 0-.46-.207-.596-.62-.09-.283-.193-.424-.31-.424-.23 0-.937.85-2.118 2.55-.14.204-.238.345-.29.423l.27 1.398c.257 1.497.617 2.245 1.08 2.245.218 0 .378-.125.48-.374.104-.25.155-.76.155-1.536 0-.092.052-.138.154-.138.155 0 .255.06.3.177.045.12.08.24.106.365.026.124.038.252.038.384 0 .715-.16 1.294-.476 1.737-.318.443-.712.665-1.18.665-.514 0-.933-.245-1.258-.734-.324-.49-.624-1.36-.9-2.613-.565.94-1.148 1.732-1.75 2.378-.6.647-1.076.97-1.43.97-.243 0-.458-.112-.644-.335-.187-.223-.28-.492-.28-.807 0-.335.08-.615.24-.842.162-.226.364-.34.608-.34.27 0 .466.17.588.512.09.237.202.355.337.355.294 0 1.013-.885 2.156-2.657l-.29-1.477c-.12-.67-.276-1.204-.466-1.605-.19-.4-.393-.6-.61-.6-.226 0-.388.125-.488.375-.1.25-.15.755-.15 1.516 0 .093-.057.14-.173.14-.296 0-.444-.31-.444-.927 0-.71.16-1.286.477-1.732.318-.446.718-.67 1.2-.67 1.13 0 1.85 1.13 2.157 3.388.854-1.273 1.53-2.156 2.028-2.648.498-.493.926-.74 1.286-.74.308 0 .554.105.737.31.184.208.275.48.275.813z"/></g></svg>