<svg version="1.1" viewBox="0.0 0.0 959.5748031496063 502.08923884514434" fill="none" stroke="none" stroke-linecap="square" stroke-miterlimit="10" xmlns:xlink="http://www.w3.org/1999/xlink" xmlns="http://www.w3.org/2000/svg"><clipPath id="p.0"><path d="m0 0l959.5748 0l0 502.08923l-959.5748 0l0 -502.08923z" clip-rule="nonzero"/></clipPath><g clip-path="url(#p.0)"><path fill="#000000" fill-opacity="0.0" d="m0 0l959.5748 0l0 502.08923l-959.5748 0z" fill-rule="evenodd"/><path fill="#084260" d="m291.87402 63.900486l0 0c0 -6.1520844 4.9872437 -11.139332 11.139313 -11.139332l156.74496 0c2.9543457 0 5.7876587 1.1736069 7.876709 3.2626343c2.0890198 2.0890312 3.2626343 4.9223633 3.2626343 7.8766975l0 44.55598c0 6.1520844 -4.9872437 11.139336 -11.139343 11.139336l-156.74496 0l0 0c-6.152069 0 -11.139313 -4.9872513 -11.139313 -11.139336z" fill-rule="evenodd"/><path stroke="#073763" stroke-width="2.0" stroke-linejoin="round" stroke-linecap="butt" d="m291.87402 63.900486l0 0c0 -6.1520844 4.9872437 -11.139332 11.139313 -11.139332l156.74496 0c2.9543457 0 5.7876587 1.1736069 7.876709 3.2626343c2.0890198 2.0890312 3.2626343 4.9223633 3.2626343 7.8766975l0 44.55598c0 6.1520844 -4.9872437 11.139336 -11.139343 11.139336l-156.74496 0l0 0c-6.152069 0 -11.139313 -4.9872513 -11.139313 -11.139336z" fill-rule="evenodd"/><path fill="#ffffff" d="m356.1089 93.09847l0 -12.234375l3.5 0q1.015625 0 1.859375 0.1875q0.859375 0.1875 1.453125 0.609375q0.59375 0.40625 0.921875 1.109375q0.34375 0.6875 0.34375 1.6875q0 0.96875 -0.328125 1.6875q-0.3125 0.703125 -0.921875 1.171875q-0.59375 0.46875 -1.421875 0.703125q-0.828125 0.234375 -1.828125 0.234375l-2.015625 0l0 4.84375l-1.5625 0zm1.5625 -6.125l1.828125 0q1.59375 0 2.359375 -0.59375q0.78125 -0.609375 0.78125 -1.921875q0 -1.328125 -0.8125 -1.828125q-0.8125 -0.515625 -2.40625 -0.515625l-1.75 0l0 4.859375zm12.08017 6.34375q-0.90625 0 -1.703125 -0.3125q-0.796875 -0.328125 -1.390625 -0.9375q-0.578125 -0.609375 -0.921875 -1.484375q-0.328125 -0.875 -0.328125 -2.0q0 -1.125 0.34375 -2.0q0.34375 -0.890625 0.90625 -1.5q0.578125 -0.625 1.296875 -0.953125q0.734375 -0.328125 1.515625 -0.328125q0.859375 0 1.53125 0.3125q0.6875 0.296875 1.140625 0.859375q0.46875 0.546875 0.703125 1.34375q0.25 0.78125 0.25 1.75q0 0.234375 -0.015625 0.46875q0 0.234375 -0.046875 0.40625l-6.109375 0q0.09375 1.453125 0.890625 2.3125q0.8125 0.84375 2.125 0.84375q0.65625 0 1.203125 -0.203125q0.546875 -0.203125 1.0625 -0.515625l0.53125 1.015625q-0.59375 0.375 -1.328125 0.65625q-0.71875 0.265625 -1.65625 0.265625zm-2.859375 -5.484375l4.859375 0q0 -1.375 -0.59375 -2.09375q-0.578125 -0.71875 -1.640625 -0.71875q-0.484375 0 -0.9375 0.1875q-0.4375 0.1875 -0.796875 0.546875q-0.34375 0.359375 -0.578125 0.890625q-0.234375 0.515625 -0.3125 1.1875zm8.4410095 5.265625l0 -9.0625l1.265625 0l0.125 1.640625l0.0625 0q0.46875 -0.859375 1.125 -1.359375q0.671875 -0.515625 1.453125 -0.515625q0.53125 0 0.96875 0.1875l-0.296875 1.34375q-0.234375 -0.0625 -0.421875 -0.09375q-0.171875 -0.046875 -0.453125 -0.046875q-0.578125 0 -1.203125 0.46875q-0.625 0.453125 -1.09375 1.609375l0 5.828125l-1.53125 0zm8.774078 0.21875q-0.984375 0 -1.859375 -0.34375q-0.875 -0.359375 -1.53125 -0.90625l0.765625 -1.015625q0.609375 0.484375 1.234375 0.78125q0.625 0.296875 1.4375 0.296875q0.890625 0 1.34375 -0.40625q0.453125 -0.421875 0.453125 -1.015625q0 -0.359375 -0.1875 -0.609375q-0.1875 -0.265625 -0.484375 -0.453125q-0.28125 -0.203125 -0.65625 -0.34375q-0.375 -0.15625 -0.75 -0.3125q-0.484375 -0.15625 -0.96875 -0.375q-0.484375 -0.21875 -0.875 -0.515625q-0.375 -0.3125 -0.625 -0.71875q-0.234375 -0.421875 -0.234375 -1.0q0 -0.53125 0.21875 -1.0q0.21875 -0.484375 0.609375 -0.828125q0.40625 -0.359375 0.984375 -0.546875q0.578125 -0.203125 1.296875 -0.203125q0.859375 0 1.578125 0.3125q0.71875 0.296875 1.25 0.71875l-0.734375 0.96875q-0.46875 -0.359375 -0.96875 -0.578125q-0.5 -0.21875 -1.09375 -0.21875q-0.859375 0 -1.265625 0.390625q-0.40625 0.390625 -0.40625 0.90625q0 0.328125 0.171875 0.5625q0.171875 0.234375 0.453125 0.40625q0.28125 0.171875 0.640625 0.3125q0.359375 0.140625 0.75 0.296875q0.484375 0.1875 0.984375 0.390625q0.5 0.203125 0.890625 0.515625q0.390625 0.296875 0.640625 0.75q0.25 0.453125 0.25 1.078125q0 0.5625 -0.21875 1.046875q-0.203125 0.484375 -0.625 0.859375q-0.421875 0.375 -1.046875 0.578125q-0.625 0.21875 -1.421875 0.21875zm8.973206 0q-0.84375 0 -1.609375 -0.3125q-0.75 -0.3125 -1.328125 -0.921875q-0.578125 -0.609375 -0.921875 -1.484375q-0.34375 -0.890625 -0.34375 -2.015625q0 -1.140625 0.34375 -2.015625q0.34375 -0.890625 0.921875 -1.5q0.578125 -0.625 1.328125 -0.9375q0.765625 -0.328125 1.609375 -0.328125q0.828125 0 1.578125 0.328125q0.765625 0.3125 1.34375 0.9375q0.578125 0.609375 0.921875 1.5q0.34375 0.875 0.34375 2.015625q0 1.125 -0.34375 2.015625q-0.34375 0.875 -0.921875 1.484375q-0.578125 0.609375 -1.34375 0.921875q-0.75 0.3125 -1.578125 0.3125zm0 -1.265625q0.578125 0 1.0625 -0.25q0.484375 -0.25 0.828125 -0.703125q0.34375 -0.46875 0.53125 -1.09375q0.1875 -0.640625 0.1875 -1.421875q0 -0.78125 -0.1875 -1.421875q-0.1875 -0.640625 -0.53125 -1.109375q-0.34375 -0.46875 -0.828125 -0.71875q-0.484375 -0.25 -1.0625 -0.25q-0.578125 0 -1.078125 0.25q-0.484375 0.25 -0.828125 0.71875q-0.34375 0.46875 -0.53125 1.109375q-0.1875 0.640625 -0.1875 1.421875q0 0.78125 0.1875 1.421875q0.1875 0.625 0.53125 1.09375q0.34375 0.453125 0.828125 0.703125q0.5 0.25 1.078125 0.25zm6.5804443 1.046875l0 -9.0625l1.265625 0l0.125 1.296875l0.0625 0q0.65625 -0.640625 1.375 -1.078125q0.71875 -0.453125 1.671875 -0.453125q1.4375 0 2.09375 0.90625q0.65625 0.890625 0.65625 2.640625l0 5.75l-1.53125 0l0 -5.546875q0 -1.28125 -0.40625 -1.84375q-0.40625 -0.578125 -1.296875 -0.578125q-0.71875 0 -1.265625 0.359375q-0.53125 0.359375 -1.21875 1.046875l0 6.5625l-1.53125 0z" fill-rule="nonzero"/><path fill="#ce1126" d="m93.28084 205.07628l0 0c0 -4.395172 3.562996 -7.9581757 7.958168 -7.9581757l111.989174 0c2.1106415 0 4.1348267 0.8384552 5.6272736 2.330902c1.4924469 1.4924469 2.330902 3.516632 2.330902 5.6272736l0 31.831696c0 4.395172 -3.5629883 7.9581604 -7.9581757 7.9581604l-111.989174 0l0 0c-4.395172 0 -7.958168 -3.5629883 -7.958168 -7.9581604z" fill-rule="evenodd"/><path stroke="#073763" stroke-width="2.0" stroke-linejoin="round" stroke-linecap="butt" d="m93.28084 205.07628l0 0c0 -4.395172 3.562996 -7.9581757 7.958168 -7.9581757l111.989174 0c2.1106415 0 4.1348267 0.8384552 5.6272736 2.330902c1.4924469 1.4924469 2.330902 3.516632 2.330902 5.6272736l0 31.831696c0 4.395172 -3.5629883 7.9581604 -7.9581757 7.9581604l-111.989174 0l0 0c-4.395172 0 -7.958168 -3.5629883 -7.958168 -7.9581604z" fill-rule="evenodd"/><path fill="#ffffff" d="m135.80902 227.91212l0 -12.234375l1.609375 0l4.421875 7.6875l1.328125 2.53125l0.078125 0q-0.0625 -0.9375 -0.125 -1.921875q-0.0625 -1.0 -0.0625 -1.96875l0 -6.328125l1.46875 0l0 12.234375l-1.609375 0l-4.4375 -7.703125l-1.328125 -2.515625l-0.0625 0q0.0625 0.921875 0.125 1.890625q0.078125 0.953125 0.078125 1.921875l0 6.40625l-1.484375 0zm14.023727 0.21875q-1.140625 0 -1.90625 -0.671875q-0.75 -0.671875 -0.75 -1.890625q0 -1.5 1.328125 -2.28125q1.328125 -0.796875 4.234375 -1.125q0 -0.421875 -0.09375 -0.828125q-0.078125 -0.421875 -0.28125 -0.734375q-0.203125 -0.3125 -0.578125 -0.5q-0.359375 -0.203125 -0.90625 -0.203125q-0.796875 0 -1.484375 0.296875q-0.6875 0.296875 -1.234375 0.671875l-0.59375 -1.0625q0.640625 -0.421875 1.546875 -0.796875q0.921875 -0.390625 2.015625 -0.390625q1.65625 0 2.40625 1.03125q0.75 1.015625 0.75 2.703125l0 5.5625l-1.265625 0l-0.140625 -1.078125l-0.046875 0q-0.65625 0.53125 -1.40625 0.921875q-0.734375 0.375 -1.59375 0.375zm0.4375 -1.21875q0.65625 0 1.234375 -0.3125q0.578125 -0.3125 1.234375 -0.90625l0 -2.515625q-1.140625 0.140625 -1.921875 0.359375q-0.765625 0.203125 -1.25 0.484375q-0.46875 0.265625 -0.6875 0.640625q-0.203125 0.359375 -0.203125 0.78125q0 0.796875 0.453125 1.140625q0.46875 0.328125 1.140625 0.328125zm6.8715057 1.0l0 -9.0625l1.265625 0l0.125 1.296875l0.0625 0q0.59375 -0.640625 1.296875 -1.078125q0.703125 -0.453125 1.515625 -0.453125q1.046875 0 1.625 0.46875q0.59375 0.453125 0.875 1.265625q0.71875 -0.78125 1.4375 -1.25q0.71875 -0.484375 1.546875 -0.484375q1.40625 0 2.078125 0.90625q0.6875 0.890625 0.6875 2.640625l0 5.75l-1.53125 0l0 -5.546875q0 -1.28125 -0.40625 -1.84375q-0.40625 -0.578125 -1.265625 -0.578125q-1.03125 0 -2.28125 1.40625l0 6.5625l-1.53125 0l0 -5.546875q0 -1.28125 -0.40625 -1.84375q-0.40625 -0.578125 -1.296875 -0.578125q-1.015625 0 -2.265625 1.40625l0 6.5625l-1.53125 0zm19.137909 0.21875q-0.90625 0 -1.703125 -0.3125q-0.796875 -0.328125 -1.390625 -0.9375q-0.578125 -0.609375 -0.921875 -1.484375q-0.328125 -0.875 -0.328125 -2.0q0 -1.125 0.34375 -2.0q0.34375 -0.890625 0.90625 -1.5q0.578125 -0.625 1.296875 -0.953125q0.734375 -0.328125 1.515625 -0.328125q0.859375 0 1.53125 0.3125q0.6875 0.296875 1.140625 0.859375q0.46875 0.546875 0.703125 1.34375q0.25 0.78125 0.25 1.75q0 0.234375 -0.015625 0.46875q0 0.234375 -0.046875 0.40625l-6.109375 0q0.09375 1.453125 0.890625 2.3125q0.8125 0.84375 2.125 0.84375q0.65625 0 1.203125 -0.203125q0.546875 -0.203125 1.0625 -0.515625l0.53125 1.015625q-0.59375 0.375 -1.328125 0.65625q-0.71875 0.265625 -1.65625 0.265625zm-2.859375 -5.484375l4.859375 0q0 -1.375 -0.59375 -2.09375q-0.578125 -0.71875 -1.640625 -0.71875q-0.484375 0 -0.9375 0.1875q-0.4375 0.1875 -0.796875 0.546875q-0.34375 0.359375 -0.578125 0.890625q-0.234375 0.515625 -0.3125 1.1875z" fill-rule="nonzero"/><path fill="#084260" d="m317.43307 205.08284l0 0c0 -4.395172 3.5629883 -7.9581757 7.9581604 -7.9581757l111.9892 0c2.1106262 0 4.1348267 0.8384552 5.6272583 2.330902c1.4924316 1.4924469 2.330902 3.516632 2.330902 5.6272736l0 31.831696c0 4.395172 -3.5629883 7.9581604 -7.9581604 7.9581604l-111.9892 0l0 0c-4.395172 0 -7.9581604 -3.5629883 -7.9581604 -7.9581604z" fill-rule="evenodd"/><path stroke="#073763" stroke-width="2.0" stroke-linejoin="round" stroke-linecap="butt" d="m317.43307 205.08284l0 0c0 -4.395172 3.5629883 -7.9581757 7.9581604 -7.9581757l111.9892 0c2.1106262 0 4.1348267 0.8384552 5.6272583 2.330902c1.4924316 1.4924469 2.330902 3.516632 2.330902 5.6272736l0 31.831696c0 4.395172 -3.5629883 7.9581604 -7.9581604 7.9581604l-111.9892 0l0 0c-4.395172 0 -7.9581604 -3.5629883 -7.9581604 -7.9581604z" fill-rule="evenodd"/><path fill="#ffffff" d="m354.1511 221.07494l-0.578125 1.859375l3.6875 0l-0.578125 -1.859375q-0.34375 -1.03125 -0.640625 -2.046875q-0.296875 -1.015625 -0.59375 -2.078125l-0.078125 0q-0.28125 1.0625 -0.578125 2.078125q-0.296875 1.015625 -0.640625 2.046875zm-3.71875 6.84375l4.140625 -12.234375l1.75 0l4.140625 12.234375l-1.65625 0l-1.15625 -3.734375l-4.46875 0l-1.171875 3.734375l-1.578125 0zm14.711517 0.21875q-1.71875 0 -2.734375 -1.21875q-1.015625 -1.234375 -1.015625 -3.515625q0 -1.09375 0.328125 -1.984375q0.328125 -0.890625 0.859375 -1.5q0.546875 -0.625 1.25 -0.953125q0.71875 -0.34375 1.5 -0.34375q0.78125 0 1.359375 0.28125q0.578125 0.28125 1.171875 0.765625l-0.0625 -1.546875l0 -3.484375l1.546875 0l0 13.28125l-1.265625 0l-0.140625 -1.0625l-0.046875 0q-0.546875 0.515625 -1.25 0.90625q-0.703125 0.375 -1.5 0.375zm0.34375 -1.28125q0.625 0 1.1875 -0.296875q0.5625 -0.3125 1.125 -0.953125l0 -4.734375q-0.578125 -0.53125 -1.109375 -0.734375q-0.53125 -0.21875 -1.09375 -0.21875q-0.546875 0 -1.03125 0.25q-0.46875 0.25 -0.828125 0.71875q-0.34375 0.453125 -0.546875 1.09375q-0.203125 0.625 -0.203125 1.40625q0 1.640625 0.640625 2.5625q0.65625 0.90625 1.859375 0.90625zm10.010468 1.28125q-1.71875 0 -2.734375 -1.21875q-1.015625 -1.234375 -1.015625 -3.515625q0 -1.09375 0.328125 -1.984375q0.328125 -0.890625 0.859375 -1.5q0.546875 -0.625 1.25 -0.953125q0.71875 -0.34375 1.5 -0.34375q0.78125 0 1.359375 0.28125q0.578125 0.28125 1.171875 0.765625l-0.0625 -1.546875l0 -3.484375l1.546875 0l0 13.28125l-1.265625 0l-0.140625 -1.0625l-0.046875 0q-0.546875 0.515625 -1.25 0.90625q-0.703125 0.375 -1.5 0.375zm0.34375 -1.28125q0.625 0 1.1875 -0.296875q0.5625 -0.3125 1.125 -0.953125l0 -4.734375q-0.578125 -0.53125 -1.109375 -0.734375q-0.53125 -0.21875 -1.09375 -0.21875q-0.546875 0 -1.03125 0.25q-0.46875 0.25 -0.828125 0.71875q-0.34375 0.453125 -0.546875 1.09375q-0.203125 0.625 -0.203125 1.40625q0 1.640625 0.640625 2.5625q0.65625 0.90625 1.859375 0.90625zm6.9167175 1.0625l0 -9.0625l1.265625 0l0.125 1.640625l0.0625 0q0.46875 -0.859375 1.125 -1.359375q0.671875 -0.515625 1.453125 -0.515625q0.53125 0 0.96875 0.1875l-0.296875 1.34375q-0.234375 -0.0625 -0.421875 -0.09375q-0.171875 -0.046875 -0.453125 -0.046875q-0.578125 0 -1.203125 0.46875q-0.625 0.453125 -1.09375 1.609375l0 5.828125l-1.53125 0zm9.958923 0.21875q-0.90625 0 -1.703125 -0.3125q-0.796875 -0.328125 -1.390625 -0.9375q-0.578125 -0.609375 -0.921875 -1.484375q-0.328125 -0.875 -0.328125 -2.0q0 -1.125 0.34375 -2.0q0.34375 -0.890625 0.90625 -1.5q0.578125 -0.625 1.296875 -0.953125q0.734375 -0.328125 1.515625 -0.328125q0.859375 0 1.53125 0.3125q0.6875 0.296875 1.140625 0.859375q0.46875 0.546875 0.703125 1.34375q0.25 0.78125 0.25 1.75q0 0.234375 -0.015625 0.46875q0 0.234375 -0.046875 0.40625l-6.109375 0q0.09375 1.453125 0.890625 2.3125q0.8125 0.84375 2.125 0.84375q0.65625 0 1.203125 -0.203125q0.546875 -0.203125 1.0625 -0.515625l0.53125 1.015625q-0.59375 0.375 -1.328125 0.65625q-0.71875 0.265625 -1.65625 0.265625zm-2.859375 -5.484375l4.859375 0q0 -1.375 -0.59375 -2.09375q-0.578125 -0.71875 -1.640625 -0.71875q-0.484375 0 -0.9375 0.1875q-0.4375 0.1875 -0.796875 0.546875q-0.34375 0.359375 -0.578125 0.890625q-0.234375 0.515625 -0.3125 1.1875zm10.8160095 5.484375q-0.984375 0 -1.859375 -0.34375q-0.875 -0.359375 -1.53125 -0.90625l0.765625 -1.015625q0.609375 0.484375 1.234375 0.78125q0.625 0.296875 1.4375 0.296875q0.890625 0 1.34375 -0.40625q0.453125 -0.421875 0.453125 -1.015625q0 -0.359375 -0.1875 -0.609375q-0.1875 -0.265625 -0.484375 -0.453125q-0.28125 -0.203125 -0.65625 -0.34375q-0.375 -0.15625 -0.75 -0.3125q-0.484375 -0.15625 -0.96875 -0.375q-0.484375 -0.21875 -0.875 -0.515625q-0.375 -0.3125 -0.625 -0.71875q-0.234375 -0.421875 -0.234375 -1.0q0 -0.53125 0.21875 -1.0q0.21875 -0.484375 0.609375 -0.828125q0.40625 -0.359375 0.984375 -0.546875q0.578125 -0.203125 1.296875 -0.203125q0.859375 0 1.578125 0.3125q0.71875 0.296875 1.25 0.71875l-0.734375 0.96875q-0.46875 -0.359375 -0.96875 -0.578125q-0.5 -0.21875 -1.09375 -0.21875q-0.859375 0 -1.265625 0.390625q-0.40625 0.390625 -0.40625 0.90625q0 0.328125 0.171875 0.5625q0.171875 0.234375 0.453125 0.40625q0.28125 0.171875 0.640625 0.3125q0.359375 0.140625 0.75 0.296875q0.484375 0.1875 0.984375 0.390625q0.5 0.203125 0.890625 0.515625q0.390625 0.296875 0.640625 0.75q0.25 0.453125 0.25 1.078125q0 0.5625 -0.21875 1.046875q-0.203125 0.484375 -0.625 0.859375q-0.421875 0.375 -1.046875 0.578125q-0.625 0.21875 -1.421875 0.21875zm7.816986 0q-0.984375 0 -1.859375 -0.34375q-0.875 -0.359375 -1.53125 -0.90625l0.765625 -1.015625q0.609375 0.484375 1.234375 0.78125q0.625 0.296875 1.4375 0.296875q0.890625 0 1.34375 -0.40625q0.453125 -0.421875 0.453125 -1.015625q0 -0.359375 -0.1875 -0.609375q-0.1875 -0.265625 -0.484375 -0.453125q-0.28125 -0.203125 -0.65625 -0.34375q-0.375 -0.15625 -0.75 -0.3125q-0.484375 -0.15625 -0.96875 -0.375q-0.484375 -0.21875 -0.875 -0.515625q-0.375 -0.3125 -0.625 -0.71875q-0.234375 -0.421875 -0.234375 -1.0q0 -0.53125 0.21875 -1.0q0.21875 -0.484375 0.609375 -0.828125q0.40625 -0.359375 0.984375 -0.546875q0.578125 -0.203125 1.296875 -0.203125q0.859375 0 1.578125 0.3125q0.71875 0.296875 1.25 0.71875l-0.734375 0.96875q-0.46875 -0.359375 -0.96875 -0.578125q-0.5 -0.21875 -1.09375 -0.21875q-0.859375 0 -1.265625 0.390625q-0.40625 0.390625 -0.40625 0.90625q0 0.328125 0.171875 0.5625q0.171875 0.234375 0.453125 0.40625q0.28125 0.171875 0.640625 0.3125q0.359375 0.140625 0.75 0.296875q0.484375 0.1875 0.984375 0.390625q0.5 0.203125 0.890625 0.515625q0.390625 0.296875 0.640625 0.75q0.25 0.453125 0.25 1.078125q0 0.5625 -0.21875 1.046875q-0.203125 0.484375 -0.625 0.859375q-0.421875 0.375 -1.046875 0.578125q-0.625 0.21875 -1.421875 0.21875z" fill-rule="nonzero"/><path fill="#ce1126" d="m541.5853 205.08415l0 0c0 -4.395172 3.5629883 -7.9581604 7.95813 -7.9581604l111.9892 0c2.1106567 0 4.1348267 0.83843994 5.6272583 2.3308868c1.4924316 1.4924469 2.3308716 3.516632 2.3308716 5.6272736l0 31.831696c0 4.395172 -3.5629883 7.9581604 -7.95813 7.9581604l-111.9892 0l0 0c-4.3951416 0 -7.95813 -3.5629883 -7.95813 -7.9581604z" fill-rule="evenodd"/><path stroke="#073763" stroke-width="2.0" stroke-linejoin="round" stroke-linecap="butt" d="m541.5853 205.08415l0 0c0 -4.395172 3.5629883 -7.9581604 7.95813 -7.9581604l111.9892 0c2.1106567 0 4.1348267 0.83843994 5.6272583 2.3308868c1.4924316 1.4924469 2.3308716 3.516632 2.3308716 5.6272736l0 31.831696c0 4.395172 -3.5629883 7.9581604 -7.95813 7.9581604l-111.9892 0l0 0c-4.3951416 0 -7.95813 -3.5629883 -7.95813 -7.9581604z" fill-rule="evenodd"/><path fill="#ffffff" d="m594.7994 228.13875q-2.296875 0 -3.375 -1.953125l1.125 -0.78125q0.40625 0.71875 0.921875 1.046875q0.53125 0.328125 1.1875 0.328125q0.984375 0 1.46875 -0.59375q0.484375 -0.609375 0.484375 -2.015625l0 -8.484375l1.5625 0l0 8.640625q0 0.78125 -0.203125 1.484375q-0.1875 0.6875 -0.59375 1.21875q-0.390625 0.515625 -1.046875 0.8125q-0.640625 0.296875 -1.53125 0.296875zm10.064392 0q-0.84375 0 -1.609375 -0.3125q-0.75 -0.3125 -1.328125 -0.921875q-0.578125 -0.609375 -0.921875 -1.484375q-0.34375 -0.890625 -0.34375 -2.015625q0 -1.140625 0.34375 -2.015625q0.34375 -0.890625 0.921875 -1.5q0.578125 -0.625 1.328125 -0.9375q0.765625 -0.328125 1.609375 -0.328125q0.828125 0 1.578125 0.328125q0.765625 0.3125 1.34375 0.9375q0.578125 0.609375 0.921875 1.5q0.34375 0.875 0.34375 2.015625q0 1.125 -0.34375 2.015625q-0.34375 0.875 -0.921875 1.484375q-0.578125 0.609375 -1.34375 0.921875q-0.75 0.3125 -1.578125 0.3125zm0 -1.265625q0.578125 0 1.0625 -0.25q0.484375 -0.25 0.828125 -0.703125q0.34375 -0.46875 0.53125 -1.09375q0.1875 -0.640625 0.1875 -1.421875q0 -0.78125 -0.1875 -1.421875q-0.1875 -0.640625 -0.53125 -1.109375q-0.34375 -0.46875 -0.828125 -0.71875q-0.484375 -0.25 -1.0625 -0.25q-0.578125 0 -1.078125 0.25q-0.484375 0.25 -0.828125 0.71875q-0.34375 0.46875 -0.53125 1.109375q-0.1875 0.640625 -0.1875 1.421875q0 0.78125 0.1875 1.421875q0.1875 0.625 0.53125 1.09375q0.34375 0.453125 0.828125 0.703125q0.5 0.25 1.078125 0.25zm10.596069 1.265625q-0.640625 0 -1.328125 -0.296875q-0.671875 -0.3125 -1.265625 -0.859375l-0.0625 0l-0.125 0.9375l-1.234375 0l0 -13.28125l1.53125 0l0 3.625l-0.046875 1.640625q0.625 -0.546875 1.34375 -0.90625q0.734375 -0.375 1.5 -0.375q0.875 0 1.546875 0.328125q0.671875 0.328125 1.125 0.9375q0.46875 0.609375 0.6875 1.453125q0.234375 0.84375 0.234375 1.890625q0 1.15625 -0.3125 2.078125q-0.3125 0.90625 -0.859375 1.546875q-0.53125 0.640625 -1.25 0.96875q-0.703125 0.3125 -1.484375 0.3125zm-0.265625 -1.28125q0.5625 0 1.03125 -0.25q0.484375 -0.25 0.828125 -0.703125q0.34375 -0.46875 0.53125 -1.140625q0.203125 -0.671875 0.203125 -1.515625q0 -0.734375 -0.140625 -1.34375q-0.125 -0.625 -0.421875 -1.0625q-0.28125 -0.4375 -0.734375 -0.671875q-0.453125 -0.25 -1.09375 -0.25q-1.09375 0 -2.421875 1.234375l0 4.75q0.59375 0.515625 1.171875 0.734375q0.59375 0.21875 1.046875 0.21875z" fill-rule="nonzero"/><path fill="#000000" fill-opacity="0.0" d="m381.38583 119.5958l-224.15749 77.5118" fill-rule="evenodd"/><path stroke="#073763" stroke-width="1.0" stroke-linejoin="round" stroke-linecap="butt" d="m381.38583 119.5958l-224.15749 77.5118" fill-rule="evenodd"/><path fill="#000000" fill-opacity="0.0" d="m381.38583 119.5958l0 77.54331" fill-rule="evenodd"/><path stroke="#073763" stroke-width="1.0" stroke-linejoin="round" stroke-linecap="butt" d="m381.38583 119.5958l0 77.54331" fill-rule="evenodd"/><path fill="#000000" fill-opacity="0.0" d="m381.38583 119.5958l224.1575 77.54331" fill-rule="evenodd"/><path stroke="#073763" stroke-width="1.0" stroke-linejoin="round" stroke-linecap="butt" d="m381.38583 119.5958l224.1575 77.54331" fill-rule="evenodd"/><path fill="#ce1126" d="m127.90551 328.96472l0 0c0 -4.395172 3.562996 -7.9581604 7.958168 -7.9581604l111.98918 0c2.1106415 0 4.1348267 0.83843994 5.6272736 2.330902c1.4924469 1.4924316 2.3308868 3.516632 2.3308868 5.6272583l0 31.831696c0 4.395172 -3.5629883 7.958191 -7.9581604 7.958191l-111.98918 0l0 0c-4.395172 0 -7.958168 -3.5630188 -7.958168 -7.958191z" fill-rule="evenodd"/><path stroke="#073763" stroke-width="2.0" stroke-linejoin="round" stroke-linecap="butt" d="m127.90551 328.96472l0 0c0 -4.395172 3.562996 -7.9581604 7.958168 -7.9581604l111.98918 0c2.1106415 0 4.1348267 0.83843994 5.6272736 2.330902c1.4924469 1.4924316 2.3308868 3.516632 2.3308868 5.6272583l0 31.831696c0 4.395172 -3.5629883 7.958191 -7.9581604 7.958191l-111.98918 0l0 0c-4.395172 0 -7.958168 -3.5630188 -7.958168 -7.958191z" fill-rule="evenodd"/><path fill="#ffffff" d="m183.04056 352.01932q-1.15625 0 -2.140625 -0.421875q-0.96875 -0.4375 -1.6875 -1.234375q-0.71875 -0.8125 -1.125 -2.0q-0.390625 -1.1875 -0.390625 -2.6875q0 -1.46875 0.40625 -2.640625q0.421875 -1.171875 1.140625 -1.984375q0.734375 -0.828125 1.71875 -1.265625q0.984375 -0.453125 2.171875 -0.453125q1.109375 0 1.953125 0.46875q0.859375 0.453125 1.390625 1.046875l-0.828125 1.015625q-0.484375 -0.53125 -1.109375 -0.84375q-0.609375 -0.3125 -1.390625 -0.3125q-0.875 0 -1.59375 0.34375q-0.703125 0.34375 -1.21875 0.984375q-0.5 0.640625 -0.765625 1.5625q-0.265625 0.90625 -0.265625 2.046875q0 1.15625 0.265625 2.078125q0.265625 0.921875 0.75 1.578125q0.484375 0.65625 1.1875 1.015625q0.703125 0.34375 1.578125 0.34375q0.890625 0 1.5625 -0.359375q0.671875 -0.359375 1.28125 -1.015625l0.859375 0.96875q-0.734375 0.84375 -1.65625 1.3125q-0.90625 0.453125 -2.09375 0.453125zm5.871475 -0.21875l0 -9.0625l1.53125 0l0 9.0625l-1.53125 0zm0.78125 -10.9375q-0.453125 0 -0.765625 -0.28125q-0.296875 -0.28125 -0.296875 -0.703125q0 -0.453125 0.296875 -0.71875q0.3125 -0.265625 0.765625 -0.265625q0.453125 0 0.75 0.265625q0.3125 0.265625 0.3125 0.71875q0 0.421875 -0.3125 0.703125q-0.296875 0.28125 -0.75 0.28125zm6.6675415 11.15625q-0.734375 0 -1.234375 -0.21875q-0.484375 -0.21875 -0.796875 -0.609375q-0.31248474 -0.390625 -0.43748474 -0.953125q-0.125 -0.5625 -0.125 -1.234375l0 -5.015625l-1.34375 0l0 -1.15625l1.40625 -0.09375l0.1875 -2.546875l1.2968597 0l0 2.546875l2.4375 0l0 1.25l-2.4375 0l0 5.03125q0 0.84375 0.296875 1.296875q0.3125 0.453125 1.09375 0.453125q0.25 0 0.53125 -0.0625q0.28125 -0.078125 0.5 -0.171875l0.296875 1.15625q-0.375 0.125 -0.8125 0.21875q-0.4375 0.109375 -0.859375 0.109375zm3.5870667 3.6875q-0.3125 0 -0.578125 -0.046875q-0.25 -0.046875 -0.484375 -0.140625l0.3125 -1.21875q0.140625 0.03125 0.328125 0.078125q0.1875 0.046875 0.359375 0.046875q0.78125 0 1.265625 -0.546875q0.5 -0.546875 0.78125 -1.390625l0.203125 -0.671875l-3.640625 -9.078125l1.59375 0l1.84375 5.015625q0.203125 0.59375 0.4375 1.265625q0.234375 0.65625 0.4375 1.28125l0.078125 0q0.203125 -0.609375 0.390625 -1.28125q0.1875 -0.671875 0.375 -1.265625l1.625 -5.015625l1.484375 0l-3.40625 9.8125q-0.25 0.671875 -0.546875 1.25q-0.296875 0.578125 -0.703125 1.0q-0.40625 0.421875 -0.9375 0.65625q-0.515625 0.25 -1.21875 0.25z" fill-rule="nonzero"/><path fill="#084260" d="m317.43307 330.35318l0 0c0 -4.395172 3.5629883 -7.9581604 7.9581604 -7.9581604l111.9892 0c2.1106262 0 4.1348267 0.83843994 5.6272583 2.3308716c1.4924316 1.4924622 2.330902 3.5166626 2.330902 5.627289l0 31.831696c0 4.395172 -3.5629883 7.9581604 -7.9581604 7.9581604l-111.9892 0l0 0c-4.395172 0 -7.9581604 -3.5629883 -7.9581604 -7.9581604z" fill-rule="evenodd"/><path stroke="#073763" stroke-width="2.0" stroke-linejoin="round" stroke-linecap="butt" d="m317.43307 330.35318l0 0c0 -4.395172 3.5629883 -7.9581604 7.9581604 -7.9581604l111.9892 0c2.1106262 0 4.1348267 0.83843994 5.6272583 2.3308716c1.4924316 1.4924622 2.330902 3.5166626 2.330902 5.627289l0 31.831696c0 4.395172 -3.5629883 7.9581604 -7.9581604 7.9581604l-111.9892 0l0 0c-4.395172 0 -7.9581604 -3.5629883 -7.9581604 -7.9581604z" fill-rule="evenodd"/><path fill="#ffffff" d="m363.0972 353.40778q-1.296875 0 -2.40625 -0.484375q-1.09375 -0.484375 -1.890625 -1.3125l0.9375 -1.09375q0.65625 0.6875 1.53125 1.109375q0.890625 0.421875 1.84375 0.421875q1.21875 0 1.890625 -0.546875q0.671875 -0.546875 0.671875 -1.453125q0 -0.453125 -0.171875 -0.78125q-0.15625 -0.328125 -0.421875 -0.5625q-0.265625 -0.234375 -0.640625 -0.421875q-0.375 -0.1875 -0.8125 -0.390625l-1.75 -0.765625q-0.421875 -0.1875 -0.875 -0.4375q-0.453125 -0.265625 -0.8125 -0.640625q-0.34375 -0.375 -0.578125 -0.890625q-0.21875 -0.515625 -0.21875 -1.1875q0 -0.6875 0.28125 -1.28125q0.296875 -0.59375 0.8125 -1.03125q0.515625 -0.453125 1.21875 -0.6875q0.703125 -0.25 1.53125 -0.25q1.109375 0 2.03125 0.421875q0.9375 0.421875 1.59375 1.09375l-0.84375 1.015625q-0.5625 -0.546875 -1.25 -0.84375q-0.671875 -0.3125 -1.53125 -0.3125q-1.015625 0 -1.640625 0.46875q-0.625 0.46875 -0.625 1.3125q0 0.453125 0.171875 0.765625q0.171875 0.296875 0.46875 0.53125q0.3125 0.234375 0.65625 0.421875q0.359375 0.171875 0.734375 0.3125l1.734375 0.75q0.515625 0.21875 0.984375 0.515625q0.46875 0.28125 0.796875 0.671875q0.34375 0.375 0.53125 0.890625q0.203125 0.515625 0.203125 1.1875q0 0.734375 -0.296875 1.375q-0.28125 0.625 -0.828125 1.109375q-0.53125 0.46875 -1.296875 0.734375q-0.765625 0.265625 -1.734375 0.265625zm8.826935 0q-0.734375 0 -1.234375 -0.21875q-0.484375 -0.21875 -0.796875 -0.609375q-0.3125 -0.390625 -0.4375 -0.953125q-0.125 -0.5625 -0.125 -1.234375l0 -5.015625l-1.34375 0l0 -1.15625l1.40625 -0.09375l0.1875 -2.546875l1.296875 0l0 2.546875l2.4375 0l0 1.25l-2.4375 0l0 5.03125q0 0.84375 0.296875 1.296875q0.3125 0.453125 1.09375 0.453125q0.25 0 0.53125 -0.0625q0.28125 -0.078125 0.5 -0.171875l0.296875 1.15625q-0.375 0.125 -0.8125 0.21875q-0.4375 0.109375 -0.859375 0.109375zm3.4464417 -0.21875l0 -9.0625l1.265625 0l0.125 1.640625l0.0625 0q0.46875 -0.859375 1.125 -1.359375q0.671875 -0.515625 1.453125 -0.515625q0.53125 0 0.96875 0.1875l-0.296875 1.34375q-0.234375 -0.0625 -0.421875 -0.09375q-0.171875 -0.046875 -0.453125 -0.046875q-0.578125 0 -1.203125 0.46875q-0.625 0.453125 -1.09375 1.609375l0 5.828125l-1.53125 0zm9.958954 0.21875q-0.90625 0 -1.703125 -0.3125q-0.796875 -0.328125 -1.390625 -0.9375q-0.578125 -0.609375 -0.921875 -1.484375q-0.328125 -0.875 -0.328125 -2.0q0 -1.125 0.34375 -2.0q0.34375 -0.890625 0.90625 -1.5q0.578125 -0.625 1.296875 -0.953125q0.734375 -0.328125 1.515625 -0.328125q0.859375 0 1.53125 0.3125q0.6875 0.296875 1.140625 0.859375q0.46875 0.546875 0.703125 1.34375q0.25 0.78125 0.25 1.75q0 0.234375 -0.015625 0.46875q0 0.234375 -0.046875 0.40625l-6.109375 0q0.09375 1.453125 0.890625 2.3125q0.8125 0.84375 2.125 0.84375q0.65625 0 1.203125 -0.203125q0.546875 -0.203125 1.0625 -0.515625l0.53125 1.015625q-0.59375 0.375 -1.328125 0.65625q-0.71875 0.265625 -1.65625 0.265625zm-2.859375 -5.484375l4.859375 0q0 -1.375 -0.59375 -2.09375q-0.578125 -0.71875 -1.640625 -0.71875q-0.484375 0 -0.9375 0.1875q-0.4375 0.1875 -0.796875 0.546875q-0.34375 0.359375 -0.578125 0.890625q-0.234375 0.515625 -0.3125 1.1875zm12.1128845 5.484375q-0.90625 0 -1.703125 -0.3125q-0.796875 -0.328125 -1.390625 -0.9375q-0.578125 -0.609375 -0.921875 -1.484375q-0.328125 -0.875 -0.328125 -2.0q0 -1.125 0.34375 -2.0q0.34375 -0.890625 0.90625 -1.5q0.578125 -0.625 1.296875 -0.953125q0.734375 -0.328125 1.515625 -0.328125q0.859375 0 1.53125 0.3125q0.6875 0.296875 1.140625 0.859375q0.46875 0.546875 0.703125 1.34375q0.25 0.78125 0.25 1.75q0 0.234375 -0.015625 0.46875q0 0.234375 -0.046875 0.40625l-6.109375 0q0.09375 1.453125 0.890625 2.3125q0.8125 0.84375 2.125 0.84375q0.65625 0 1.203125 -0.203125q0.546875 -0.203125 1.0625 -0.515625l0.53125 1.015625q-0.59375 0.375 -1.328125 0.65625q-0.71875 0.265625 -1.65625 0.265625zm-2.859375 -5.484375l4.859375 0q0 -1.375 -0.59375 -2.09375q-0.578125 -0.71875 -1.640625 -0.71875q-0.484375 0 -0.9375 0.1875q-0.4375 0.1875 -0.796875 0.546875q-0.34375 0.359375 -0.578125 0.890625q-0.234375 0.515625 -0.3125 1.1875zm11.1137085 5.484375q-0.734375 0 -1.234375 -0.21875q-0.484375 -0.21875 -0.796875 -0.609375q-0.3125 -0.390625 -0.4375 -0.953125q-0.125 -0.5625 -0.125 -1.234375l0 -5.015625l-1.34375 0l0 -1.15625l1.40625 -0.09375l0.1875 -2.546875l1.296875 0l0 2.546875l2.4375 0l0 1.25l-2.4375 0l0 5.03125q0 0.84375 0.296875 1.296875q0.3125 0.453125 1.09375 0.453125q0.25 0 0.53125 -0.0625q0.28125 -0.078125 0.5 -0.171875l0.296875 1.15625q-0.375 0.125 -0.8125 0.21875q-0.4375 0.109375 -0.859375 0.109375z" fill-rule="nonzero"/><path fill="#000000" fill-opacity="0.0" d="m381.38583 244.8727l-189.51183 76.12599" fill-rule="evenodd"/><path stroke="#073763" stroke-width="1.0" stroke-linejoin="round" stroke-linecap="butt" d="m381.38583 244.8727l-189.51183 76.12599" fill-rule="evenodd"/><path fill="#000000" fill-opacity="0.0" d="m381.38583 244.8727l0 77.511826" fill-rule="evenodd"/><path stroke="#073763" stroke-width="1.0" stroke-linejoin="round" stroke-linecap="butt" d="m381.38583 244.8727l0 77.511826" fill-rule="evenodd"/><path fill="#ce1126" d="m24.624672 441.8781l0 0c0 -4.395172 3.562992 -7.9581604 7.958164 -7.9581604l111.98918 0c2.1106415 0 4.1348267 0.83843994 5.6272736 2.330902c1.4924469 1.4924316 2.3308868 3.516632 2.3308868 5.6272583l0 31.831696c0 4.395172 -3.5629883 7.9581604 -7.9581604 7.9581604l-111.98918 0l0 0c-4.395172 0 -7.958164 -3.5629883 -7.958164 -7.9581604z" fill-rule="evenodd"/><path stroke="#073763" stroke-width="2.0" stroke-linejoin="round" stroke-linecap="butt" d="m24.624672 441.8781l0 0c0 -4.395172 3.562992 -7.9581604 7.958164 -7.9581604l111.98918 0c2.1106415 0 4.1348267 0.83843994 5.6272736 2.330902c1.4924469 1.4924316 2.3308868 3.516632 2.3308868 5.6272583l0 31.831696c0 4.395172 -3.5629883 7.9581604 -7.9581604 7.9581604l-111.98918 0l0 0c-4.395172 0 -7.958164 -3.5629883 -7.958164 -7.9581604z" fill-rule="evenodd"/><path fill="#ffffff" d="m67.152855 464.71396l0 -12.234375l1.609375 0l4.421875 7.6875l1.328125 2.53125l0.078125 0q-0.0625 -0.9375 -0.125 -1.921875q-0.0625 -1.0 -0.0625 -1.96875l0 -6.328125l1.46875 0l0 12.234375l-1.609375 0l-4.4375 -7.703125l-1.328125 -2.515625l-0.0625 0q0.0625 0.921875 0.125 1.890625q0.078125 0.953125 0.078125 1.921875l0 6.40625l-1.484375 0zm14.023727 0.21875q-1.140625 0 -1.90625 -0.671875q-0.75 -0.671875 -0.75 -1.890625q0 -1.5 1.328125 -2.28125q1.328125 -0.796875 4.234375 -1.125q0 -0.421875 -0.09375 -0.828125q-0.078125 -0.421875 -0.28125 -0.734375q-0.203125 -0.3125 -0.578125 -0.5q-0.359375 -0.203125 -0.90625 -0.203125q-0.796875 0 -1.484375 0.296875q-0.6875 0.296875 -1.234375 0.671875l-0.59375 -1.0625q0.640625 -0.421875 1.546875 -0.796875q0.921875 -0.390625 2.015625 -0.390625q1.65625 0 2.40625 1.03125q0.75 1.015625 0.75 2.703125l0 5.5625l-1.265625 0l-0.140625 -1.078125l-0.046875 0q-0.65625 0.53125 -1.40625 0.921875q-0.734375 0.375 -1.59375 0.375zm0.4375 -1.21875q0.65625 0 1.234375 -0.3125q0.578125 -0.3125 1.234375 -0.90625l0 -2.515625q-1.140625 0.140625 -1.921875 0.359375q-0.765625 0.203125 -1.25 0.484375q-0.46875 0.265625 -0.6875 0.640625q-0.203125 0.359375 -0.203125 0.78125q0 0.796875 0.453125 1.140625q0.46875 0.328125 1.140625 0.328125zm6.8715057 1.0l0 -9.0625l1.265625 0l0.125 1.296875l0.0625 0q0.59375 -0.640625 1.2968674 -1.078125q0.703125 -0.453125 1.515625 -0.453125q1.046875 0 1.625 0.46875q0.59375 0.453125 0.875 1.265625q0.71875 -0.78125 1.4375 -1.25q0.71875 -0.484375 1.546875 -0.484375q1.40625 0 2.078125 0.90625q0.6875 0.890625 0.6875 2.640625l0 5.75l-1.53125 0l0 -5.546875q0 -1.28125 -0.40625 -1.84375q-0.40625 -0.578125 -1.265625 -0.578125q-1.03125 0 -2.28125 1.40625l0 6.5625l-1.53125 0l0 -5.546875q0 -1.28125 -0.40625 -1.84375q-0.40625 -0.578125 -1.296875 -0.578125q-1.015625 0 -2.2656174 1.40625l0 6.5625l-1.53125 0zm19.137901 0.21875q-0.90625 0 -1.703125 -0.3125q-0.796875 -0.328125 -1.390625 -0.9375q-0.578125 -0.609375 -0.921875 -1.484375q-0.328125 -0.875 -0.328125 -2.0q0 -1.125 0.34375 -2.0q0.34375 -0.890625 0.90625 -1.5q0.578125 -0.625 1.296875 -0.953125q0.734375 -0.328125 1.515625 -0.328125q0.859375 0 1.53125 0.3125q0.6875 0.296875 1.140625 0.859375q0.46875 0.546875 0.703125 1.34375q0.25 0.78125 0.25 1.75q0 0.234375 -0.015625 0.46875q0 0.234375 -0.046875 0.40625l-6.109375 0q0.09375 1.453125 0.890625 2.3125q0.8125 0.84375 2.125 0.84375q0.65625 0 1.203125 -0.203125q0.546875 -0.203125 1.0625 -0.515625l0.53125 1.015625q-0.59375 0.375 -1.328125 0.65625q-0.71875 0.265625 -1.65625 0.265625zm-2.859375 -5.484375l4.859375 0q0 -1.375 -0.59375 -2.09375q-0.578125 -0.71875 -1.640625 -0.71875q-0.484375 0 -0.9375 0.1875q-0.4375 0.1875 -0.796875 0.546875q-0.34375 0.359375 -0.578125 0.890625q-0.234375 0.515625 -0.3125 1.1875z" fill-rule="nonzero"/><path fill="#ce1126" d="m205.35432 441.8781l0 0c0 -4.395172 3.5630035 -7.9581604 7.9581757 -7.9581604l111.98917 0c2.1106567 0 4.1348267 0.83843994 5.627289 2.330902c1.4924316 1.4924316 2.330902 3.516632 2.330902 5.6272583l0 31.831696c0 4.395172 -3.5630188 7.9581604 -7.958191 7.9581604l-111.98917 0l0 0c-4.395172 0 -7.9581757 -3.5629883 -7.9581757 -7.9581604z" fill-rule="evenodd"/><path stroke="#073763" stroke-width="2.0" stroke-linejoin="round" stroke-linecap="butt" d="m205.35432 441.8781l0 0c0 -4.395172 3.5630035 -7.9581604 7.9581757 -7.9581604l111.98917 0c2.1106567 0 4.1348267 0.83843994 5.627289 2.330902c1.4924316 1.4924316 2.330902 3.516632 2.330902 5.6272583l0 31.831696c0 4.395172 -3.5630188 7.9581604 -7.958191 7.9581604l-111.98917 0l0 0c-4.395172 0 -7.9581757 -3.5629883 -7.9581757 -7.9581604z" fill-rule="evenodd"/><path fill="#ffffff" d="m244.08105 464.9327q-1.15625 0 -2.140625 -0.421875q-0.96875 -0.4375 -1.6875 -1.234375q-0.71875 -0.8125 -1.125 -2.0q-0.390625 -1.1875 -0.390625 -2.6875q0 -1.46875 0.40625 -2.640625q0.421875 -1.171875 1.140625 -1.984375q0.734375 -0.828125 1.71875 -1.265625q0.984375 -0.453125 2.171875 -0.453125q1.109375 0 1.953125 0.46875q0.859375 0.453125 1.390625 1.046875l-0.828125 1.015625q-0.484375 -0.53125 -1.109375 -0.84375q-0.609375 -0.3125 -1.390625 -0.3125q-0.875 0 -1.59375 0.34375q-0.703125 0.34375 -1.21875 0.984375q-0.5 0.640625 -0.765625 1.5625q-0.265625 0.90625 -0.265625 2.046875q0 1.15625 0.265625 2.078125q0.265625 0.921875 0.75 1.578125q0.484375 0.65625 1.1875 1.015625q0.703125 0.34375 1.578125 0.34375q0.890625 0 1.5625 -0.359375q0.671875 -0.359375 1.28125 -1.015625l0.859375 0.96875q-0.734375 0.84375 -1.65625 1.3125q-0.90625 0.453125 -2.09375 0.453125zm9.402725 0q-0.84375 0 -1.609375 -0.3125q-0.75 -0.3125 -1.328125 -0.921875q-0.578125 -0.609375 -0.921875 -1.484375q-0.34375 -0.890625 -0.34375 -2.015625q0 -1.140625 0.34375 -2.015625q0.34375 -0.890625 0.921875 -1.5q0.578125 -0.625 1.328125 -0.9375q0.765625 -0.328125 1.609375 -0.328125q0.828125 0 1.578125 0.328125q0.765625 0.3125 1.3437653 0.9375q0.578125 0.609375 0.921875 1.5q0.34375 0.875 0.34375 2.015625q0 1.125 -0.34375 2.015625q-0.34375 0.875 -0.921875 1.484375q-0.57814026 0.609375 -1.3437653 0.921875q-0.75 0.3125 -1.578125 0.3125zm0 -1.265625q0.578125 0 1.0625 -0.25q0.484375 -0.25 0.828125 -0.703125q0.34375 -0.46875 0.53125 -1.09375q0.18751526 -0.640625 0.18751526 -1.421875q0 -0.78125 -0.18751526 -1.421875q-0.1875 -0.640625 -0.53125 -1.109375q-0.34375 -0.46875 -0.828125 -0.71875q-0.484375 -0.25 -1.0625 -0.25q-0.578125 0 -1.078125 0.25q-0.484375 0.25 -0.828125 0.71875q-0.34375 0.46875 -0.53125 1.109375q-0.1875 0.640625 -0.1875 1.421875q0 0.78125 0.1875 1.421875q0.1875 0.625 0.53125 1.09375q0.34375 0.453125 0.828125 0.703125q0.5 0.25 1.078125 0.25zm9.221085 1.265625q-1.453125 0 -2.109375 -0.890625q-0.65625 -0.890625 -0.65625 -2.65625l0 -5.734375l1.546875 0l0 5.53125q0 1.296875 0.390625 1.875q0.40625 0.5625 1.296875 0.5625q0.71875 0 1.25 -0.359375q0.546875 -0.375 1.203125 -1.171875l0 -6.4375l1.53125 0l0 9.0625l-1.28125 0l-0.125 -1.421875l-0.0625 0q-0.625 0.75 -1.328125 1.203125q-0.703125 0.4375 -1.65625 0.4375zm7.508362 -0.21875l0 -9.0625l1.265625 0l0.125 1.296875l0.0625 0q0.65625 -0.640625 1.375 -1.078125q0.71875 -0.453125 1.671875 -0.453125q1.4375 0 2.09375 0.90625q0.65625 0.890625 0.65625 2.640625l0 5.75l-1.53125 0l0 -5.546875q0 -1.28125 -0.40625 -1.84375q-0.40625 -0.578125 -1.296875 -0.578125q-0.71875 0 -1.265625 0.359375q-0.53125 0.359375 -1.21875 1.046875l0 6.5625l-1.53125 0zm13.064362 0.21875q-0.734375 0 -1.234375 -0.21875q-0.484375 -0.21875 -0.796875 -0.609375q-0.3125 -0.390625 -0.4375 -0.953125q-0.125 -0.5625 -0.125 -1.234375l0 -5.015625l-1.34375 0l0 -1.15625l1.40625 -0.09375l0.1875 -2.546875l1.296875 0l0 2.546875l2.4375 0l0 1.25l-2.4375 0l0 5.03125q0 0.84375 0.296875 1.296875q0.3125 0.453125 1.09375 0.453125q0.25 0 0.53125 -0.0625q0.28125 -0.078125 0.5 -0.171875l0.296875 1.15625q-0.375 0.125 -0.8125 0.21875q-0.4375 0.109375 -0.859375 0.109375zm3.4464417 -0.21875l0 -9.0625l1.265625 0l0.125 1.640625l0.0625 0q0.46875 -0.859375 1.125 -1.359375q0.671875 -0.515625 1.453125 -0.515625q0.53125 0 0.96875 0.1875l-0.296875 1.34375q-0.234375 -0.0625 -0.421875 -0.09375q-0.171875 -0.046875 -0.453125 -0.046875q-0.578125 0 -1.203125 0.46875q-0.625 0.453125 -1.09375 1.609375l0 5.828125l-1.53125 0zm7.0809937 3.90625q-0.3125 0 -0.578125 -0.046875q-0.25 -0.046875 -0.484375 -0.140625l0.3125 -1.21875q0.140625 0.03125 0.328125 0.078125q0.1875 0.046875 0.359375 0.046875q0.78125 0 1.265625 -0.546875q0.5 -0.546875 0.78125 -1.390625l0.203125 -0.671875l-3.640625 -9.078125l1.59375 0l1.84375 5.015625q0.203125 0.59375 0.4375 1.265625q0.234375 0.65625 0.4375 1.28125l0.078125 0q0.203125 -0.609375 0.390625 -1.28125q0.1875 -0.671875 0.375 -1.265625l1.625 -5.015625l1.484375 0l-3.40625 9.8125q-0.25 0.671875 -0.546875 1.25q-0.296875 0.578125 -0.703125 1.0q-0.40625 0.421875 -0.9375 0.65625q-0.515625 0.25 -1.21875 0.25z" fill-rule="nonzero"/><path fill="#000000" fill-opacity="0.0" d="m191.85826 368.7546l-103.27558 65.165344" fill-rule="evenodd"/><path stroke="#073763" stroke-width="1.0" stroke-linejoin="round" stroke-linecap="butt" d="m191.85826 368.7546l-103.27558 65.165344" fill-rule="evenodd"/><path fill="#000000" fill-opacity="0.0" d="m191.85826 368.7546l77.44884 65.165344" fill-rule="evenodd"/><path stroke="#073763" stroke-width="1.0" stroke-linejoin="round" stroke-linecap="butt" d="m191.85826 368.7546l77.44884 65.165344" fill-rule="evenodd"/><path fill="#ce1126" d="m541.5853 323.72983l0 0c0 -4.395172 3.5629883 -7.9581604 7.95813 -7.9581604l111.9892 0c2.1106567 0 4.1348267 0.83843994 5.6272583 2.3308716c1.4924316 1.4924622 2.3308716 3.516632 2.3308716 5.627289l0 31.831696c0 4.395172 -3.5629883 7.9581604 -7.95813 7.9581604l-111.9892 0l0 0c-4.3951416 0 -7.95813 -3.5629883 -7.95813 -7.9581604z" fill-rule="evenodd"/><path stroke="#073763" stroke-width="2.0" stroke-linejoin="round" stroke-linecap="butt" d="m541.5853 323.72983l0 0c0 -4.395172 3.5629883 -7.9581604 7.95813 -7.9581604l111.9892 0c2.1106567 0 4.1348267 0.83843994 5.6272583 2.3308716c1.4924316 1.4924622 2.3308716 3.516632 2.3308716 5.627289l0 31.831696c0 4.395172 -3.5629883 7.9581604 -7.95813 7.9581604l-111.9892 0l0 0c-4.3951416 0 -7.95813 -3.5629883 -7.95813 -7.9581604z" fill-rule="evenodd"/><path fill="#ffffff" d="m562.5283 346.56567l0 -12.234375l3.0625 0q2.84375 0 4.3125 1.5625q1.46875 1.5625 1.46875 4.5q0 1.453125 -0.375 2.609375q-0.359375 1.140625 -1.09375 1.9375q-0.71875 0.78125 -1.796875 1.203125q-1.0625 0.421875 -2.4375 0.421875l-3.140625 0zm1.5625 -1.265625l1.390625 0q2.140625 0 3.21875 -1.28125q1.078125 -1.296875 1.078125 -3.625q0 -2.328125 -1.078125 -3.5625q-1.078125 -1.234375 -3.21875 -1.234375l-1.390625 0l0 9.703125zm13.442322 1.484375q-0.90625 0 -1.703125 -0.3125q-0.796875 -0.328125 -1.390625 -0.9375q-0.578125 -0.609375 -0.921875 -1.484375q-0.328125 -0.875 -0.328125 -2.0q0 -1.125 0.34375 -2.0q0.34375 -0.890625 0.90625 -1.5q0.578125 -0.625 1.296875 -0.953125q0.734375 -0.328125 1.515625 -0.328125q0.859375 0 1.53125 0.3125q0.6875 0.296875 1.140625 0.859375q0.46875 0.546875 0.703125 1.34375q0.25 0.78125 0.25 1.75q0 0.234375 -0.015625 0.46875q0 0.234375 -0.046875 0.40625l-6.109375 0q0.09375 1.453125 0.890625 2.3125q0.8125 0.84375 2.125 0.84375q0.65625 0 1.203125 -0.203125q0.546875 -0.203125 1.0625 -0.515625l0.53125 1.015625q-0.59375 0.375 -1.328125 0.65625q-0.71875 0.265625 -1.65625 0.265625zm-2.859375 -5.484375l4.859375 0q0 -1.375 -0.59375 -2.09375q-0.578125 -0.71875 -1.640625 -0.71875q-0.484375 0 -0.9375 0.1875q-0.4375 0.1875 -0.796875 0.546875q-0.34375 0.359375 -0.578125 0.890625q-0.234375 0.515625 -0.3125 1.1875zm10.81604 5.484375q-0.984375 0 -1.859375 -0.34375q-0.875 -0.359375 -1.53125 -0.90625l0.765625 -1.015625q0.609375 0.484375 1.234375 0.78125q0.625 0.296875 1.4375 0.296875q0.890625 0 1.34375 -0.40625q0.453125 -0.421875 0.453125 -1.015625q0 -0.359375 -0.1875 -0.609375q-0.1875 -0.265625 -0.484375 -0.453125q-0.28125 -0.203125 -0.65625 -0.34375q-0.375 -0.15625 -0.75 -0.3125q-0.484375 -0.15625 -0.96875 -0.375q-0.484375 -0.21875 -0.875 -0.515625q-0.375 -0.3125 -0.625 -0.71875q-0.234375 -0.421875 -0.234375 -1.0q0 -0.53125 0.21875 -1.0q0.21875 -0.484375 0.609375 -0.828125q0.40625 -0.359375 0.984375 -0.546875q0.578125 -0.203125 1.296875 -0.203125q0.859375 0 1.578125 0.3125q0.71875 0.296875 1.25 0.71875l-0.734375 0.96875q-0.46875 -0.359375 -0.96875 -0.578125q-0.5 -0.21875 -1.09375 -0.21875q-0.859375 0 -1.265625 0.390625q-0.40625 0.390625 -0.40625 0.90625q0 0.328125 0.171875 0.5625q0.171875 0.234375 0.453125 0.40625q0.28125 0.171875 0.640625 0.3125q0.359375 0.140625 0.75 0.296875q0.484375 0.1875 0.984375 0.390625q0.5 0.203125 0.890625 0.515625q0.390625 0.296875 0.640625 0.75q0.25 0.453125 0.25 1.078125q0 0.5625 -0.21875 1.046875q-0.203125 0.484375 -0.625 0.859375q-0.421875 0.375 -1.046875 0.578125q-0.625 0.21875 -1.421875 0.21875zm9.020081 0q-0.890625 0 -1.671875 -0.3125q-0.78125 -0.3125 -1.359375 -0.921875q-0.5625 -0.609375 -0.890625 -1.484375q-0.328125 -0.890625 -0.328125 -2.015625q0 -1.140625 0.34375 -2.015625q0.359375 -0.890625 0.953125 -1.5q0.609375 -0.625 1.390625 -0.9375q0.796875 -0.328125 1.671875 -0.328125q0.90625 0 1.53125 0.328125q0.640625 0.3125 1.125 0.734375l-0.78125 1.015625q-0.390625 -0.359375 -0.828125 -0.578125q-0.4375 -0.21875 -0.984375 -0.21875q-0.609375 0 -1.140625 0.25q-0.515625 0.25 -0.890625 0.71875q-0.375 0.46875 -0.59375 1.109375q-0.21875 0.640625 -0.21875 1.421875q0 0.78125 0.203125 1.421875q0.21875 0.625 0.578125 1.09375q0.359375 0.453125 0.875 0.703125q0.53125 0.25 1.15625 0.25q0.625 0 1.15625 -0.265625q0.53125 -0.265625 0.96875 -0.640625l0.671875 1.015625q-0.625 0.546875 -1.375 0.859375q-0.734375 0.296875 -1.5625 0.296875zm4.929138 -0.21875l0 -9.0625l1.265625 0l0.125 1.640625l0.0625 0q0.46875 -0.859375 1.125 -1.359375q0.671875 -0.515625 1.453125 -0.515625q0.53125 0 0.96875 0.1875l-0.296875 1.34375q-0.234375 -0.0625 -0.421875 -0.09375q-0.171875 -0.046875 -0.453125 -0.046875q-0.578125 0 -1.203125 0.46875q-0.625 0.453125 -1.09375 1.609375l0 5.828125l-1.53125 0zm6.473694 0l0 -9.0625l1.53125 0l0 9.0625l-1.53125 0zm0.78125 -10.9375q-0.453125 0 -0.765625 -0.28125q-0.296875 -0.28125 -0.296875 -0.703125q0 -0.453125 0.296875 -0.71875q0.3125 -0.265625 0.765625 -0.265625q0.453125 0 0.75 0.265625q0.3125 0.265625 0.3125 0.71875q0 0.421875 -0.3125 0.703125q-0.296875 0.28125 -0.75 0.28125zm3.8081665 14.765625l0 -12.890625l1.265625 0l0.125 1.046875l0.0625 0q0.609375 -0.53125 1.34375 -0.90625q0.75 -0.375 1.546875 -0.375q0.875 0 1.546875 0.328125q0.671875 0.328125 1.125 0.9375q0.453125 0.609375 0.671875 1.453125q0.234375 0.84375 0.234375 1.90625q0 1.171875 -0.3125 2.078125q-0.3125 0.890625 -0.859375 1.53125q-0.53125 0.640625 -1.25 0.96875q-0.703125 0.3125 -1.484375 0.3125q-0.640625 0 -1.265625 -0.265625q-0.625 -0.28125 -1.265625 -0.78125l0.046875 1.59375l0 3.0625l-1.53125 0zm3.75 -4.890625q0.5625 0 1.03125 -0.25q0.484375 -0.25 0.828125 -0.703125q0.34375 -0.46875 0.53125 -1.140625q0.203125 -0.671875 0.203125 -1.515625q0 -0.734375 -0.140625 -1.34375q-0.125 -0.625 -0.421875 -1.0625q-0.28125 -0.4375 -0.734375 -0.671875q-0.453125 -0.25 -1.09375 -0.25q-0.578125 0 -1.171875 0.3125q-0.578125 0.3125 -1.25 0.921875l0 4.75q0.609375 0.515625 1.1875 0.734375q0.578125 0.21875 1.03125 0.21875zm9.146301 1.28125q-0.734375 0 -1.234375 -0.21875q-0.484375 -0.21875 -0.796875 -0.609375q-0.3125 -0.390625 -0.4375 -0.953125q-0.125 -0.5625 -0.125 -1.234375l0 -5.015625l-1.34375 0l0 -1.15625l1.40625 -0.09375l0.1875 -2.546875l1.296875 0l0 2.546875l2.4375 0l0 1.25l-2.4375 0l0 5.03125q0 0.84375 0.296875 1.296875q0.3125 0.453125 1.09375 0.453125q0.25 0 0.53125 -0.0625q0.28125 -0.078125 0.5 -0.171875l0.296875 1.15625q-0.375 0.125 -0.8125 0.21875q-0.4375 0.109375 -0.859375 0.109375zm3.4464111 -0.21875l0 -9.0625l1.53125 0l0 9.0625l-1.53125 0zm0.78125 -10.9375q-0.453125 0 -0.765625 -0.28125q-0.296875 -0.28125 -0.296875 -0.703125q0 -0.453125 0.296875 -0.71875q0.3125 -0.265625 0.765625 -0.265625q0.453125 0 0.75 0.265625q0.3125 0.265625 0.3125 0.71875q0 0.421875 -0.3125 0.703125q-0.296875 0.28125 -0.75 0.28125zm7.3394165 11.15625q-0.84375 0 -1.609375 -0.3125q-0.75 -0.3125 -1.328125 -0.921875q-0.578125 -0.609375 -0.921875 -1.484375q-0.34375 -0.890625 -0.34375 -2.015625q0 -1.140625 0.34375 -2.015625q0.34375 -0.890625 0.921875 -1.5q0.578125 -0.625 1.328125 -0.9375q0.765625 -0.328125 1.609375 -0.328125q0.828125 0 1.578125 0.328125q0.765625 0.3125 1.34375 0.9375q0.578125 0.609375 0.921875 1.5q0.34375 0.875 0.34375 2.015625q0 1.125 -0.34375 2.015625q-0.34375 0.875 -0.921875 1.484375q-0.578125 0.609375 -1.34375 0.921875q-0.75 0.3125 -1.578125 0.3125zm0 -1.265625q0.578125 0 1.0625 -0.25q0.484375 -0.25 0.828125 -0.703125q0.34375 -0.46875 0.53125 -1.09375q0.1875 -0.640625 0.1875 -1.421875q0 -0.78125 -0.1875 -1.421875q-0.1875 -0.640625 -0.53125 -1.109375q-0.34375 -0.46875 -0.828125 -0.71875q-0.484375 -0.25 -1.0625 -0.25q-0.578125 0 -1.078125 0.25q-0.484375 0.25 -0.828125 0.71875q-0.34375 0.46875 -0.53125 1.109375q-0.1875 0.640625 -0.1875 1.421875q0 0.78125 0.1875 1.421875q0.1875 0.625 0.53125 1.09375q0.34375 0.453125 0.828125 0.703125q0.5 0.25 1.078125 0.25zm6.5804443 1.046875l0 -9.0625l1.265625 0l0.125 1.296875l0.0625 0q0.65625 -0.640625 1.375 -1.078125q0.71875 -0.453125 1.671875 -0.453125q1.4375 0 2.09375 0.90625q0.65625 0.890625 0.65625 2.640625l0 5.75l-1.53125 0l0 -5.546875q0 -1.28125 -0.40625 -1.84375q-0.40625 -0.578125 -1.296875 -0.578125q-0.71875 0 -1.265625 0.359375q-0.53125 0.359375 -1.21875 1.046875l0 6.5625l-1.53125 0z" fill-rule="nonzero"/><path fill="#ffffff" d="m733.4803 323.72983l0 0c0 -4.395172 3.5630493 -7.9581604 7.958191 -7.9581604l111.9892 0c2.1105957 0 4.1348267 0.83843994 5.6272583 2.3308716c1.4924316 1.4924622 2.3308716 3.516632 2.3308716 5.627289l0 31.831696c0 4.395172 -3.5629883 7.9581604 -7.95813 7.9581604l-111.9892 0l0 0c-4.3951416 0 -7.958191 -3.5629883 -7.958191 -7.9581604z" fill-rule="evenodd"/><path stroke="#073763" stroke-width="2.0" stroke-linejoin="round" stroke-linecap="butt" d="m733.4803 323.72983l0 0c0 -4.395172 3.5630493 -7.9581604 7.958191 -7.9581604l111.9892 0c2.1105957 0 4.1348267 0.83843994 5.6272583 2.3308716c1.4924316 1.4924622 2.3308716 3.516632 2.3308716 5.627289l0 31.831696c0 4.395172 -3.5629883 7.9581604 -7.95813 7.9581604l-111.9892 0l0 0c-4.3951416 0 -7.958191 -3.5629883 -7.958191 -7.9581604z" fill-rule="evenodd"/><path fill="#000000" d="m766.4238 346.78442q-1.15625 0 -2.140625 -0.421875q-0.96875 -0.4375 -1.6875 -1.234375q-0.71875 -0.8125 -1.125 -2.0q-0.390625 -1.1875 -0.390625 -2.6875q0 -1.46875 0.40625 -2.640625q0.421875 -1.171875 1.140625 -1.984375q0.734375 -0.828125 1.71875 -1.265625q0.984375 -0.453125 2.171875 -0.453125q1.109375 0 1.953125 0.46875q0.859375 0.453125 1.390625 1.046875l-0.828125 1.015625q-0.484375 -0.53125 -1.109375 -0.84375q-0.609375 -0.3125 -1.390625 -0.3125q-0.875 0 -1.59375 0.34375q-0.703125 0.34375 -1.21875 0.984375q-0.5 0.640625 -0.765625 1.5625q-0.265625 0.90625 -0.265625 2.046875q0 1.15625 0.265625 2.078125q0.265625 0.921875 0.75 1.578125q0.484375 0.65625 1.1875 1.015625q0.703125 0.34375 1.578125 0.34375q0.890625 0 1.5625 -0.359375q0.671875 -0.359375 1.28125 -1.015625l0.859375 0.96875q-0.734375 0.84375 -1.65625 1.3125q-0.90625 0.453125 -2.09375 0.453125zm9.40271 0q-0.84375 0 -1.609375 -0.3125q-0.75 -0.3125 -1.328125 -0.921875q-0.578125 -0.609375 -0.921875 -1.484375q-0.34375 -0.890625 -0.34375 -2.015625q0 -1.140625 0.34375 -2.015625q0.34375 -0.890625 0.921875 -1.5q0.578125 -0.625 1.328125 -0.9375q0.765625 -0.328125 1.609375 -0.328125q0.828125 0 1.578125 0.328125q0.765625 0.3125 1.34375 0.9375q0.578125 0.609375 0.921875 1.5q0.34375 0.875 0.34375 2.015625q0 1.125 -0.34375 2.015625q-0.34375 0.875 -0.921875 1.484375q-0.578125 0.609375 -1.34375 0.921875q-0.75 0.3125 -1.578125 0.3125zm0 -1.265625q0.578125 0 1.0625 -0.25q0.484375 -0.25 0.828125 -0.703125q0.34375 -0.46875 0.53125 -1.09375q0.1875 -0.640625 0.1875 -1.421875q0 -0.78125 -0.1875 -1.421875q-0.1875 -0.640625 -0.53125 -1.109375q-0.34375 -0.46875 -0.828125 -0.71875q-0.484375 -0.25 -1.0625 -0.25q-0.578125 0 -1.078125 0.25q-0.484375 0.25 -0.828125 0.71875q-0.34375 0.46875 -0.53125 1.109375q-0.1875 0.640625 -0.1875 1.421875q0 0.78125 0.1875 1.421875q0.1875 0.625 0.53125 1.09375q0.34375 0.453125 0.828125 0.703125q0.5 0.25 1.078125 0.25zm6.5804443 1.046875l0 -9.0625l1.265625 0l0.125 1.296875l0.0625 0q0.59375 -0.640625 1.296875 -1.078125q0.703125 -0.453125 1.515625 -0.453125q1.046875 0 1.625 0.46875q0.59375 0.453125 0.875 1.265625q0.71875 -0.78125 1.4375 -1.25q0.71875 -0.484375 1.546875 -0.484375q1.40625 0 2.078125 0.90625q0.6875 0.890625 0.6875 2.640625l0 5.75l-1.53125 0l0 -5.546875q0 -1.28125 -0.40625 -1.84375q-0.40625 -0.578125 -1.265625 -0.578125q-1.03125 0 -2.28125 1.40625l0 6.5625l-1.53125 0l0 -5.546875q0 -1.28125 -0.40625 -1.84375q-0.40625 -0.578125 -1.296875 -0.578125q-1.015625 0 -2.265625 1.40625l0 6.5625l-1.53125 0zm15.466003 3.828125l0 -12.890625l1.265625 0l0.125 1.046875l0.0625 0q0.609375 -0.53125 1.34375 -0.90625q0.75 -0.375 1.546875 -0.375q0.875 0 1.546875 0.328125q0.671875 0.328125 1.125 0.9375q0.453125 0.609375 0.671875 1.453125q0.234375 0.84375 0.234375 1.90625q0 1.171875 -0.3125 2.078125q-0.3125 0.890625 -0.859375 1.53125q-0.53125 0.640625 -1.25 0.96875q-0.703125 0.3125 -1.484375 0.3125q-0.640625 0 -1.265625 -0.265625q-0.625 -0.28125 -1.265625 -0.78125l0.046875 1.59375l0 3.0625l-1.53125 0zm3.75 -4.890625q0.5625 0 1.03125 -0.25q0.484375 -0.25 0.828125 -0.703125q0.34375 -0.46875 0.53125 -1.140625q0.203125 -0.671875 0.203125 -1.515625q0 -0.734375 -0.140625 -1.34375q-0.125 -0.625 -0.421875 -1.0625q-0.28125 -0.4375 -0.734375 -0.671875q-0.453125 -0.25 -1.09375 -0.25q-0.578125 0 -1.171875 0.3125q-0.578125 0.3125 -1.25 0.921875l0 4.75q0.609375 0.515625 1.1875 0.734375q0.578125 0.21875 1.03125 0.21875zm8.4366455 1.28125q-1.140625 0 -1.90625 -0.671875q-0.75 -0.671875 -0.75 -1.890625q0 -1.5 1.328125 -2.28125q1.328125 -0.796875 4.234375 -1.125q0 -0.421875 -0.09375 -0.828125q-0.078125 -0.421875 -0.28125 -0.734375q-0.203125 -0.3125 -0.578125 -0.5q-0.359375 -0.203125 -0.90625 -0.203125q-0.796875 0 -1.484375 0.296875q-0.6875 0.296875 -1.234375 0.671875l-0.59375 -1.0625q0.640625 -0.421875 1.546875 -0.796875q0.921875 -0.390625 2.015625 -0.390625q1.65625 0 2.40625 1.03125q0.75 1.015625 0.75 2.703125l0 5.5625l-1.265625 0l-0.140625 -1.078125l-0.046875 0q-0.65625 0.53125 -1.40625 0.921875q-0.734375 0.375 -1.59375 0.375zm0.4375 -1.21875q0.65625 0 1.234375 -0.3125q0.578125 -0.3125 1.234375 -0.90625l0 -2.515625q-1.140625 0.140625 -1.921875 0.359375q-0.765625 0.203125 -1.25 0.484375q-0.46875 0.265625 -0.6875 0.640625q-0.203125 0.359375 -0.203125 0.78125q0 0.796875 0.453125 1.140625q0.46875 0.328125 1.140625 0.328125zm6.871521 1.0l0 -9.0625l1.265625 0l0.125 1.296875l0.0625 0q0.65625 -0.640625 1.375 -1.078125q0.71875 -0.453125 1.671875 -0.453125q1.4375 0 2.09375 0.90625q0.65625 0.890625 0.65625 2.640625l0 5.75l-1.53125 0l0 -5.546875q0 -1.28125 -0.40625 -1.84375q-0.40625 -0.578125 -1.296875 -0.578125q-0.71875 0 -1.265625 0.359375q-0.53125 0.359375 -1.21875 1.046875l0 6.5625l-1.53125 0zm10.345581 3.90625q-0.3125 0 -0.578125 -0.046875q-0.25 -0.046875 -0.484375 -0.140625l0.3125 -1.21875q0.140625 0.03125 0.328125 0.078125q0.1875 0.046875 0.359375 0.046875q0.78125 0 1.265625 -0.546875q0.5 -0.546875 0.78125 -1.390625l0.203125 -0.671875l-3.640625 -9.078125l1.59375 0l1.84375 5.015625q0.203125 0.59375 0.4375 1.265625q0.234375 0.65625 0.4375 1.28125l0.078125 0q0.203125 -0.609375 0.390625 -1.28125q0.1875 -0.671875 0.375 -1.265625l1.625 -5.015625l1.484375 0l-3.40625 9.8125q-0.25 0.671875 -0.546875 1.25q-0.296875 0.578125 -0.703125 1.0q-0.40625 0.421875 -0.9375 0.65625q-0.515625 0.25 -1.21875 0.25z" fill-rule="nonzero"/><path fill="#000000" fill-opacity="0.0" d="m605.5381 244.87401l0 70.89766" fill-rule="evenodd"/><path stroke="#073763" stroke-width="1.0" stroke-linejoin="round" stroke-linecap="butt" d="m605.5381 244.87401l0 70.89766" fill-rule="evenodd"/><path fill="#000000" fill-opacity="0.0" d="m605.5381 244.87401l191.90546 70.89766" fill-rule="evenodd"/><path stroke="#073763" stroke-width="1.0" stroke-linejoin="round" stroke-linecap="butt" d="m605.5381 244.87401l191.90546 70.89766" fill-rule="evenodd"/><path fill="#ffffff" d="m637.5381 442.3755l0 0c0 -4.395172 3.5629883 -7.9581604 7.95813 -7.9581604l111.9892 0c2.1106567 0 4.1348267 0.83843994 5.6272583 2.330902c1.4924316 1.4924316 2.3308716 3.516632 2.3308716 5.6272583l0 31.831696c0 4.395172 -3.5629883 7.9581604 -7.95813 7.9581604l-111.9892 0l0 0c-4.3951416 0 -7.95813 -3.5629883 -7.95813 -7.9581604z" fill-rule="evenodd"/><path stroke="#073763" stroke-width="2.0" stroke-linejoin="round" stroke-linecap="butt" d="m637.5381 442.3755l0 0c0 -4.395172 3.5629883 -7.9581604 7.95813 -7.9581604l111.9892 0c2.1106567 0 4.1348267 0.83843994 5.6272583 2.330902c1.4924316 1.4924316 2.3308716 3.516632 2.3308716 5.6272583l0 31.831696c0 4.395172 -3.5629883 7.9581604 -7.95813 7.9581604l-111.9892 0l0 0c-4.3951416 0 -7.95813 -3.5629883 -7.95813 -7.9581604z" fill-rule="evenodd"/><path fill="#000000" d="m680.0662 465.21133l0 -12.234375l1.609375 0l4.421875 7.6875l1.328125 2.53125l0.078125 0q-0.0625 -0.9375 -0.125 -1.921875q-0.0625 -1.0 -0.0625 -1.96875l0 -6.328125l1.46875 0l0 12.234375l-1.609375 0l-4.4375 -7.703125l-1.328125 -2.515625l-0.0625 0q0.0625 0.921875 0.125 1.890625q0.078125 0.953125 0.078125 1.921875l0 6.40625l-1.484375 0zm14.023743 0.21875q-1.140625 0 -1.90625 -0.671875q-0.75 -0.671875 -0.75 -1.890625q0 -1.5 1.328125 -2.28125q1.328125 -0.796875 4.234375 -1.125q0 -0.421875 -0.09375 -0.828125q-0.078125 -0.421875 -0.28125 -0.734375q-0.203125 -0.3125 -0.578125 -0.5q-0.359375 -0.203125 -0.90625 -0.203125q-0.796875 0 -1.484375 0.296875q-0.6875 0.296875 -1.234375 0.671875l-0.59375 -1.0625q0.640625 -0.421875 1.546875 -0.796875q0.921875 -0.390625 2.015625 -0.390625q1.65625 0 2.40625 1.03125q0.75 1.015625 0.75 2.703125l0 5.5625l-1.265625 0l-0.140625 -1.078125l-0.046875 0q-0.65625 0.53125 -1.40625 0.921875q-0.734375 0.375 -1.59375 0.375zm0.4375 -1.21875q0.65625 0 1.234375 -0.3125q0.578125 -0.3125 1.234375 -0.90625l0 -2.515625q-1.140625 0.140625 -1.921875 0.359375q-0.765625 0.203125 -1.25 0.484375q-0.46875 0.265625 -0.6875 0.640625q-0.203125 0.359375 -0.203125 0.78125q0 0.796875 0.453125 1.140625q0.46875 0.328125 1.140625 0.328125zm6.871521 1.0l0 -9.0625l1.265625 0l0.125 1.296875l0.0625 0q0.59375 -0.640625 1.296875 -1.078125q0.703125 -0.453125 1.515625 -0.453125q1.046875 0 1.625 0.46875q0.59375 0.453125 0.875 1.265625q0.71875 -0.78125 1.4375 -1.25q0.71875 -0.484375 1.546875 -0.484375q1.40625 0 2.078125 0.90625q0.6875 0.890625 0.6875 2.640625l0 5.75l-1.53125 0l0 -5.546875q0 -1.28125 -0.40625 -1.84375q-0.40625 -0.578125 -1.265625 -0.578125q-1.03125 0 -2.28125 1.40625l0 6.5625l-1.53125 0l0 -5.546875q0 -1.28125 -0.40625 -1.84375q-0.40625 -0.578125 -1.296875 -0.578125q-1.015625 0 -2.265625 1.40625l0 6.5625l-1.53125 0zm19.137878 0.21875q-0.90625 0 -1.703125 -0.3125q-0.796875 -0.328125 -1.390625 -0.9375q-0.578125 -0.609375 -0.921875 -1.484375q-0.328125 -0.875 -0.328125 -2.0q0 -1.125 0.34375 -2.0q0.34375 -0.890625 0.90625 -1.5q0.578125 -0.625 1.296875 -0.953125q0.734375 -0.328125 1.515625 -0.328125q0.859375 0 1.53125 0.3125q0.6875 0.296875 1.140625 0.859375q0.46875 0.546875 0.703125 1.34375q0.25 0.78125 0.25 1.75q0 0.234375 -0.015625 0.46875q0 0.234375 -0.046875 0.40625l-6.109375 0q0.09375 1.453125 0.890625 2.3125q0.8125 0.84375 2.125 0.84375q0.65625 0 1.203125 -0.203125q0.546875 -0.203125 1.0625 -0.515625l0.53125 1.015625q-0.59375 0.375 -1.328125 0.65625q-0.71875 0.265625 -1.65625 0.265625zm-2.859375 -5.484375l4.859375 0q0 -1.375 -0.59375 -2.09375q-0.578125 -0.71875 -1.640625 -0.71875q-0.484375 0 -0.9375 0.1875q-0.4375 0.1875 -0.796875 0.546875q-0.34375 0.359375 -0.578125 0.890625q-0.234375 0.515625 -0.3125 1.1875z" fill-rule="nonzero"/><path fill="#ffffff" d="m827.2257 442.3755l0 0c0 -4.395172 3.5629883 -7.9581604 7.958191 -7.9581604l111.9892 0c2.1105957 0 4.1348267 0.83843994 5.6272583 2.330902c1.4924316 1.4924316 2.3308716 3.516632 2.3308716 5.6272583l0 31.831696c0 4.395172 -3.5629883 7.9581604 -7.95813 7.9581604l-111.9892 0l0 0c-4.3952026 0 -7.958191 -3.5629883 -7.958191 -7.9581604z" fill-rule="evenodd"/><path stroke="#073763" stroke-width="2.0" stroke-linejoin="round" stroke-linecap="butt" d="m827.2257 442.3755l0 0c0 -4.395172 3.5629883 -7.9581604 7.958191 -7.9581604l111.9892 0c2.1105957 0 4.1348267 0.83843994 5.6272583 2.330902c1.4924316 1.4924316 2.3308716 3.516632 2.3308716 5.6272583l0 31.831696c0 4.395172 -3.5629883 7.9581604 -7.95813 7.9581604l-111.9892 0l0 0c-4.3952026 0 -7.958191 -3.5629883 -7.958191 -7.9581604z" fill-rule="evenodd"/><path fill="#000000" d="m858.5415 454.21133l0 -12.234375l3.640625 0q0.9375 0 1.703125 0.171875q0.78125 0.15625 1.328125 0.515625q0.5625 0.359375 0.859375 0.921875q0.3125 0.5625 0.3125 1.375q0 0.90625 -0.46875 1.65625q-0.453125 0.734375 -1.328125 1.015625l0 0.0625q1.125 0.203125 1.8125 0.9375q0.6875 0.734375 0.6875 2.0q0 0.890625 -0.34375 1.5625q-0.328125 0.671875 -0.9375 1.125q-0.609375 0.4375 -1.46875 0.671875q-0.859375 0.21875 -1.890625 0.21875l-3.90625 0zm1.5625 -7.03125l1.796875 0q1.578125 0 2.265625 -0.53125q0.6875 -0.546875 0.6875 -1.484375q0 -1.0625 -0.71875 -1.5q-0.71875 -0.453125 -2.15625 -0.453125l-1.875 0l0 3.96875zm0 5.796875l2.125 0q1.578125 0 2.453125 -0.578125q0.875 -0.59375 0.875 -1.828125q0 -1.140625 -0.859375 -1.671875q-0.84375 -0.53125 -2.46875 -0.53125l-2.125 0l0 4.609375zm11.907349 1.453125q-1.453125 0 -2.109375 -0.890625q-0.65625 -0.890625 -0.65625 -2.65625l0 -5.734375l1.546875 0l0 5.53125q0 1.296875 0.390625 1.875q0.40625 0.5625 1.296875 0.5625q0.71875 0 1.25 -0.359375q0.546875 -0.375 1.203125 -1.171875l0 -6.4375l1.53125 0l0 9.0625l-1.28125 0l-0.125 -1.421875l-0.0625 0q-0.625 0.75 -1.328125 1.203125q-0.703125 0.4375 -1.65625 0.4375zm9.883423 0q-0.984375 0 -1.859375 -0.34375q-0.875 -0.359375 -1.53125 -0.90625l0.765625 -1.015625q0.609375 0.484375 1.234375 0.78125q0.625 0.296875 1.4375 0.296875q0.890625 0 1.34375 -0.40625q0.453125 -0.421875 0.453125 -1.015625q0 -0.359375 -0.1875 -0.609375q-0.1875 -0.265625 -0.484375 -0.453125q-0.28125 -0.203125 -0.65625 -0.34375q-0.375 -0.15625 -0.75 -0.3125q-0.484375 -0.15625 -0.96875 -0.375q-0.484375 -0.21875 -0.875 -0.515625q-0.375 -0.3125 -0.625 -0.71875q-0.234375 -0.421875 -0.234375 -1.0q0 -0.53125 0.21875 -1.0q0.21875 -0.484375 0.609375 -0.828125q0.40625 -0.359375 0.984375 -0.546875q0.578125 -0.203125 1.296875 -0.203125q0.859375 0 1.578125 0.3125q0.71875 0.296875 1.25 0.71875l-0.734375 0.96875q-0.46875 -0.359375 -0.96875 -0.578125q-0.5 -0.21875 -1.09375 -0.21875q-0.859375 0 -1.265625 0.390625q-0.40625 0.390625 -0.40625 0.90625q0 0.328125 0.171875 0.5625q0.171875 0.234375 0.453125 0.40625q0.28125 0.171875 0.640625 0.3125q0.359375 0.140625 0.75 0.296875q0.484375 0.1875 0.984375 0.390625q0.5 0.203125 0.890625 0.515625q0.390625 0.296875 0.640625 0.75q0.25 0.453125 0.25 1.078125q0 0.5625 -0.21875 1.046875q-0.203125 0.484375 -0.625 0.859375q-0.421875 0.375 -1.046875 0.578125q-0.625 0.21875 -1.421875 0.21875zm5.4419556 -0.21875l0 -9.0625l1.53125 0l0 9.0625l-1.53125 0zm0.78125 -10.9375q-0.453125 0 -0.765625 -0.28125q-0.296875 -0.28125 -0.296875 -0.703125q0 -0.453125 0.296875 -0.71875q0.3125 -0.265625 0.765625 -0.265625q0.453125 0 0.75 0.265625q0.3125 0.265625 0.3125 0.71875q0 0.421875 -0.3125 0.703125q-0.296875 0.28125 -0.75 0.28125zm3.8081665 10.9375l0 -9.0625l1.265625 0l0.125 1.296875l0.0625 0q0.65625 -0.640625 1.375 -1.078125q0.71875 -0.453125 1.671875 -0.453125q1.4375 0 2.09375 0.90625q0.65625 0.890625 0.65625 2.640625l0 5.75l-1.53125 0l0 -5.546875q0 -1.28125 -0.40625 -1.84375q-0.40625 -0.578125 -1.296875 -0.578125q-0.71875 0 -1.265625 0.359375q-0.53125 0.359375 -1.21875 1.046875l0 6.5625l-1.53125 0zm13.876831 0.21875q-0.90625 0 -1.703125 -0.3125q-0.796875 -0.328125 -1.390625 -0.9375q-0.578125 -0.609375 -0.921875 -1.484375q-0.328125 -0.875 -0.328125 -2.0q0 -1.125 0.34375 -2.0q0.34375 -0.890625 0.90625 -1.5q0.578125 -0.625 1.296875 -0.953125q0.734375 -0.328125 1.515625 -0.328125q0.859375 0 1.53125 0.3125q0.6875 0.296875 1.140625 0.859375q0.46875 0.546875 0.703125 1.34375q0.25 0.78125 0.25 1.75q0 0.234375 -0.015625 0.46875q0 0.234375 -0.046875 0.40625l-6.109375 0q0.09375 1.453125 0.890625 2.3125q0.8125 0.84375 2.125 0.84375q0.65625 0 1.203125 -0.203125q0.546875 -0.203125 1.0625 -0.515625l0.53125 1.015625q-0.59375 0.375 -1.328125 0.65625q-0.71875 0.265625 -1.65625 0.265625zm-2.859375 -5.484375l4.859375 0q0 -1.375 -0.59375 -2.09375q-0.578125 -0.71875 -1.640625 -0.71875q-0.484375 0 -0.9375 0.1875q-0.4375 0.1875 -0.796875 0.546875q-0.34375 0.359375 -0.578125 0.890625q-0.234375 0.515625 -0.3125 1.1875zm10.81604 5.484375q-0.984375 0 -1.859375 -0.34375q-0.875 -0.359375 -1.53125 -0.90625l0.765625 -1.015625q0.609375 0.484375 1.234375 0.78125q0.625 0.296875 1.4375 0.296875q0.890625 0 1.34375 -0.40625q0.453125 -0.421875 0.453125 -1.015625q0 -0.359375 -0.1875 -0.609375q-0.1875 -0.265625 -0.484375 -0.453125q-0.28125 -0.203125 -0.65625 -0.34375q-0.375 -0.15625 -0.75 -0.3125q-0.484375 -0.15625 -0.96875 -0.375q-0.484375 -0.21875 -0.875 -0.515625q-0.375 -0.3125 -0.625 -0.71875q-0.234375 -0.421875 -0.234375 -1.0q0 -0.53125 0.21875 -1.0q0.21875 -0.484375 0.609375 -0.828125q0.40625 -0.359375 0.984375 -0.546875q0.578125 -0.203125 1.296875 -0.203125q0.859375 0 1.578125 0.3125q0.71875 0.296875 1.25 0.71875l-0.734375 0.96875q-0.46875 -0.359375 -0.96875 -0.578125q-0.5 -0.21875 -1.09375 -0.21875q-0.859375 0 -1.265625 0.390625q-0.40625 0.390625 -0.40625 0.90625q0 0.328125 0.171875 0.5625q0.171875 0.234375 0.453125 0.40625q0.28125 0.171875 0.640625 0.3125q0.359375 0.140625 0.75 0.296875q0.484375 0.1875 0.984375 0.390625q0.5 0.203125 0.890625 0.515625q0.390625 0.296875 0.640625 0.75q0.25 0.453125 0.25 1.078125q0 0.5625 -0.21875 1.046875q-0.203125 0.484375 -0.625 0.859375q-0.421875 0.375 -1.046875 0.578125q-0.625 0.21875 -1.421875 0.21875zm7.8169556 0q-0.984375 0 -1.859375 -0.34375q-0.875 -0.359375 -1.53125 -0.90625l0.765625 -1.015625q0.609375 0.484375 1.234375 0.78125q0.625 0.296875 1.4375 0.296875q0.890625 0 1.34375 -0.40625q0.453125 -0.421875 0.453125 -1.015625q0 -0.359375 -0.1875 -0.609375q-0.1875 -0.265625 -0.484375 -0.453125q-0.28125 -0.203125 -0.65625 -0.34375q-0.375 -0.15625 -0.75 -0.3125q-0.484375 -0.15625 -0.96875 -0.375q-0.484375 -0.21875 -0.875 -0.515625q-0.375 -0.3125 -0.625 -0.71875q-0.234375 -0.421875 -0.234375 -1.0q0 -0.53125 0.21875 -1.0q0.21875 -0.484375 0.609375 -0.828125q0.40625 -0.359375 0.984375 -0.546875q0.578125 -0.203125 1.296875 -0.203125q0.859375 0 1.578125 0.3125q0.71875 0.296875 1.25 0.71875l-0.734375 0.96875q-0.46875 -0.359375 -0.96875 -0.578125q-0.5 -0.21875 -1.09375 -0.21875q-0.859375 0 -1.265625 0.390625q-0.40625 0.390625 -0.40625 0.90625q0 0.328125 0.171875 0.5625q0.171875 0.234375 0.453125 0.40625q0.28125 0.171875 0.640625 0.3125q0.359375 0.140625 0.75 0.296875q0.484375 0.1875 0.984375 0.390625q0.5 0.203125 0.890625 0.515625q0.390625 0.296875 0.640625 0.75q0.25 0.453125 0.25 1.078125q0 0.5625 -0.21875 1.046875q-0.203125 0.484375 -0.625 0.859375q-0.421875 0.375 -1.046875 0.578125q-0.625 0.21875 -1.421875 0.21875z" fill-rule="nonzero"/><path fill="#000000" d="m877.7611 476.43008q-1.140625 0 -1.90625 -0.671875q-0.75 -0.671875 -0.75 -1.890625q0 -1.5 1.328125 -2.28125q1.328125 -0.796875 4.234375 -1.125q0 -0.421875 -0.09375 -0.828125q-0.078125 -0.421875 -0.28125 -0.734375q-0.203125 -0.3125 -0.578125 -0.5q-0.359375 -0.203125 -0.90625 -0.203125q-0.796875 0 -1.484375 0.296875q-0.6875 0.296875 -1.234375 0.671875l-0.59375 -1.0625q0.640625 -0.421875 1.546875 -0.796875q0.921875 -0.390625 2.015625 -0.390625q1.65625 0 2.40625 1.03125q0.75 1.015625 0.75 2.703125l0 5.5625l-1.265625 0l-0.140625 -1.078125l-0.046875 0q-0.65625 0.53125 -1.40625 0.921875q-0.734375 0.375 -1.59375 0.375zm0.4375 -1.21875q0.65625 0 1.234375 -0.3125q0.578125 -0.3125 1.234375 -0.90625l0 -2.515625q-1.140625 0.140625 -1.921875 0.359375q-0.765625 0.203125 -1.25 0.484375q-0.46875 0.265625 -0.6875 0.640625q-0.203125 0.359375 -0.203125 0.78125q0 0.796875 0.453125 1.140625q0.46875 0.328125 1.140625 0.328125zm6.871521 1.0l0 -9.0625l1.265625 0l0.125 1.640625l0.0625 0q0.46875 -0.859375 1.125 -1.359375q0.671875 -0.515625 1.453125 -0.515625q0.53125 0 0.96875 0.1875l-0.296875 1.34375q-0.234375 -0.0625 -0.421875 -0.09375q-0.171875 -0.046875 -0.453125 -0.046875q-0.578125 0 -1.203125 0.46875q-0.625 0.453125 -1.09375 1.609375l0 5.828125l-1.53125 0zm9.958923 0.21875q-0.90625 0 -1.703125 -0.3125q-0.796875 -0.328125 -1.390625 -0.9375q-0.578125 -0.609375 -0.921875 -1.484375q-0.328125 -0.875 -0.328125 -2.0q0 -1.125 0.34375 -2.0q0.34375 -0.890625 0.90625 -1.5q0.578125 -0.625 1.296875 -0.953125q0.734375 -0.328125 1.515625 -0.328125q0.859375 0 1.53125 0.3125q0.6875 0.296875 1.140625 0.859375q0.46875 0.546875 0.703125 1.34375q0.25 0.78125 0.25 1.75q0 0.234375 -0.015625 0.46875q0 0.234375 -0.046875 0.40625l-6.109375 0q0.09375 1.453125 0.890625 2.3125q0.8125 0.84375 2.125 0.84375q0.65625 0 1.203125 -0.203125q0.546875 -0.203125 1.0625 -0.515625l0.53125 1.015625q-0.59375 0.375 -1.328125 0.65625q-0.71875 0.265625 -1.65625 0.265625zm-2.859375 -5.484375l4.859375 0q0 -1.375 -0.59375 -2.09375q-0.578125 -0.71875 -1.640625 -0.71875q-0.484375 0 -0.9375 0.1875q-0.4375 0.1875 -0.796875 0.546875q-0.34375 0.359375 -0.578125 0.890625q-0.234375 0.515625 -0.3125 1.1875zm10.2734375 5.484375q-1.140625 0 -1.90625 -0.671875q-0.75 -0.671875 -0.75 -1.890625q0 -1.5 1.328125 -2.28125q1.328125 -0.796875 4.234375 -1.125q0 -0.421875 -0.09375 -0.828125q-0.078125 -0.421875 -0.28125 -0.734375q-0.203125 -0.3125 -0.578125 -0.5q-0.359375 -0.203125 -0.90625 -0.203125q-0.796875 0 -1.484375 0.296875q-0.6875 0.296875 -1.234375 0.671875l-0.59375 -1.0625q0.640625 -0.421875 1.546875 -0.796875q0.921875 -0.390625 2.015625 -0.390625q1.65625 0 2.40625 1.03125q0.75 1.015625 0.75 2.703125l0 5.5625l-1.265625 0l-0.140625 -1.078125l-0.046875 0q-0.65625 0.53125 -1.40625 0.921875q-0.734375 0.375 -1.59375 0.375zm0.4375 -1.21875q0.65625 0 1.234375 -0.3125q0.578125 -0.3125 1.234375 -0.90625l0 -2.515625q-1.140625 0.140625 -1.921875 0.359375q-0.765625 0.203125 -1.25 0.484375q-0.46875 0.265625 -0.6875 0.640625q-0.203125 0.359375 -0.203125 0.78125q0 0.796875 0.453125 1.140625q0.46875 0.328125 1.140625 0.328125z" fill-rule="nonzero"/><path fill="#000000" fill-opacity="0.0" d="m797.43304 363.51968l-95.93701 70.897644" fill-rule="evenodd"/><path stroke="#073763" stroke-width="1.0" stroke-linejoin="round" stroke-linecap="butt" d="m797.43304 363.51968l-95.93701 70.897644" fill-rule="evenodd"/><path fill="#000000" fill-opacity="0.0" d="m797.43304 363.51968l93.7323 70.897644" fill-rule="evenodd"/><path stroke="#073763" stroke-width="1.0" stroke-linejoin="round" stroke-linecap="butt" d="m797.43304 363.51968l93.7323 70.897644" fill-rule="evenodd"/><path fill="#084260" d="m803.3202 57.38067l0 0c0 -2.5512848 2.0682373 -4.6195145 4.619507 -4.6195145l142.57202 0c1.2251587 0 2.4001465 0.48669815 3.2664795 1.3530235c0.866333 0.8663292 1.3530273 2.0413208 1.3530273 3.266491l0 18.477509c0 2.5512848 -2.0682373 4.6195145 -4.619507 4.6195145l-142.57202 0c-2.5512695 0 -4.619507 -2.0682297 -4.619507 -4.6195145z" fill-rule="evenodd"/><path stroke="#073763" stroke-width="2.0" stroke-linejoin="round" stroke-linecap="butt" d="m803.3202 57.38067l0 0c0 -2.5512848 2.0682373 -4.6195145 4.619507 -4.6195145l142.57202 0c1.2251587 0 2.4001465 0.48669815 3.2664795 1.3530235c0.866333 0.8663292 1.3530273 2.0413208 1.3530273 3.266491l0 18.477509c0 2.5512848 -2.0682373 4.6195145 -4.619507 4.6195145l-142.57202 0c-2.5512695 0 -4.619507 -2.0682297 -4.619507 -4.6195145z" fill-rule="evenodd"/><path fill="#ffffff" d="m833.41473 72.66692q-1.28125 0 -2.078125 -0.796875q-0.78125 -0.8125 -0.78125 -2.3125q0 -1.09375 0.359375 -2.015625q0.359375 -0.921875 0.953125 -1.59375q0.609375 -0.671875 1.390625 -1.046875q0.78125 -0.390625 1.625 -0.390625q0.703125 0 1.1875 0.28125q0.484375 0.265625 0.828125 0.65625l-0.71875 0.78125q-0.296875 -0.375 -0.609375 -0.53125q-0.296875 -0.171875 -0.765625 -0.171875q-0.578125 0 -1.125 0.328125q-0.53125 0.3125 -0.953125 0.84375q-0.421875 0.53125 -0.671875 1.25q-0.25 0.71875 -0.25 1.515625q0 1.0625 0.453125 1.625q0.453125 0.5625 1.390625 0.5625q0.5 0 0.921875 -0.203125q0.4375 -0.21875 0.796875 -0.484375l0.546875 0.796875q-0.421875 0.3125 -1.03125 0.609375q-0.609375 0.296875 -1.46875 0.296875zm6.6575317 0q-1.265625 0 -2.015625 -0.828125q-0.75 -0.828125 -0.75 -2.28125q0 -1.109375 0.34375 -2.03125q0.359375 -0.9375 0.953125 -1.59375q0.59375 -0.671875 1.34375 -1.046875q0.75 -0.375 1.546875 -0.375q1.265625 0 2.015625 0.84375q0.765625 0.828125 0.765625 2.28125q0 1.09375 -0.359375 2.03125q-0.359375 0.921875 -0.9375 1.59375q-0.578125 0.65625 -1.34375 1.03125q-0.765625 0.375 -1.5625 0.375zm0.125 -1.015625q0.546875 0 1.046875 -0.3125q0.515625 -0.3125 0.90625 -0.84375q0.40625 -0.53125 0.640625 -1.25q0.25 -0.71875 0.25 -1.53125q0 -1.0625 -0.4375 -1.625q-0.421875 -0.5625 -1.234375 -0.5625q-0.53125 0 -1.046875 0.3125q-0.5 0.296875 -0.90625 0.84375q-0.390625 0.53125 -0.640625 1.25q-0.234375 0.71875 -0.234375 1.53125q0 1.0625 0.421875 1.625q0.421875 0.5625 1.234375 0.5625zm5.224365 0.828125l1.53125 -7.78125l1.015625 0l-0.125 1.171875l0.0625 0q0.671875 -0.578125 1.328125 -0.96875q0.65625 -0.390625 1.40625 -0.390625q0.984375 0 1.40625 0.515625q0.421875 0.515625 0.421875 1.421875q0 0.265625 -0.03125 0.515625q-0.015625 0.234375 -0.09375 0.5625l-0.984375 4.953125l-1.21875 0l0.953125 -4.796875q0.0625 -0.328125 0.09375 -0.515625q0.03125 -0.1875 0.03125 -0.40625q0 -0.578125 -0.265625 -0.875q-0.265625 -0.3125 -0.875 -0.3125q-0.46875 0 -1.046875 0.34375q-0.5625 0.328125 -1.296875 1.0625l-1.09375 5.5l-1.21875 0zm10.853149 0.1875q-0.5 0 -0.859375 -0.140625q-0.34375 -0.125 -0.578125 -0.359375q-0.21875 -0.234375 -0.3125 -0.546875q-0.09375 -0.3125 -0.09375 -0.671875q0 -0.25 0.015625 -0.4375q0.03125 -0.203125 0.0625 -0.4375l0.90625 -4.375l-1.140625 0l0.1875 -0.921875l1.21875 -0.078125l0.5625 -2.140625l1.046875 0l-0.4375 2.140625l1.96875 0l-0.1875 1.0l-2.0 0l-0.90625 4.4375q-0.046875 0.296875 -0.046875 0.578125q0 0.484375 0.203125 0.734375q0.21875 0.234375 0.78125 0.234375q0.21875 0 0.421875 -0.078125q0.21875 -0.078125 0.390625 -0.171875l0.28125 0.890625q-0.28125 0.125 -0.65625 0.234375q-0.359375 0.109375 -0.828125 0.109375zm2.7468872 -0.1875l1.53125 -7.78125l1.015625 0l-0.1875 1.5l0.0625 0q0.46875 -0.734375 1.078125 -1.203125q0.625 -0.484375 1.34375 -0.484375q0.40625 0 0.734375 0.140625l-0.4375 1.09375q-0.25 -0.125 -0.671875 -0.125q-0.5625 0 -1.171875 0.5q-0.609375 0.484375 -1.109375 1.453125l-0.96875 4.90625l-1.21875 0zm7.6713867 0.1875q-1.015625 0 -1.625 -0.71875q-0.609375 -0.71875 -0.609375 -2.09375q0 -1.125 0.34375 -2.09375q0.359375 -0.984375 0.953125 -1.703125q0.59375 -0.71875 1.34375 -1.125q0.75 -0.421875 1.5625 -0.421875q0.625 0 1.109375 0.328125q0.5 0.3125 0.765625 0.84375l0.0625 0l0.3125 -0.984375l0.984375 0l-1.546875 7.78125l-1.015625 0l0.125 -1.15625l-0.0625 0q-0.546875 0.609375 -1.265625 0.984375q-0.703125 0.359375 -1.4375 0.359375zm0.453125 -1.015625q0.609375 0 1.234375 -0.359375q0.640625 -0.359375 1.21875 -1.125l0.703125 -3.484375q-0.34375 -0.609375 -0.75 -0.875q-0.390625 -0.265625 -0.84375 -0.265625q-0.578125 0 -1.125 0.34375q-0.53125 0.34375 -0.953125 0.921875q-0.40625 0.5625 -0.65625 1.3125q-0.25 0.75 -0.25 1.546875q0 1.0 0.375 1.5q0.390625 0.484375 1.046875 0.484375zm8.732666 1.015625q-1.28125 0 -2.078125 -0.796875q-0.78125 -0.8125 -0.78125 -2.3125q0 -1.09375 0.359375 -2.015625q0.359375 -0.921875 0.953125 -1.59375q0.609375 -0.671875 1.390625 -1.046875q0.78125 -0.390625 1.625 -0.390625q0.703125 0 1.1875 0.28125q0.484375 0.265625 0.828125 0.65625l-0.71875 0.78125q-0.296875 -0.375 -0.609375 -0.53125q-0.296875 -0.171875 -0.765625 -0.171875q-0.578125 0 -1.125 0.328125q-0.53125 0.3125 -0.953125 0.84375q-0.421875 0.53125 -0.671875 1.25q-0.25 0.71875 -0.25 1.515625q0 1.0625 0.453125 1.625q0.453125 0.5625 1.390625 0.5625q0.5 0 0.921875 -0.203125q0.4375 -0.21875 0.796875 -0.484375l0.546875 0.796875q-0.421875 0.3125 -1.03125 0.609375q-0.609375 0.296875 -1.46875 0.296875zm6.460022 0q-0.5 0 -0.859375 -0.140625q-0.34375 -0.125 -0.578125 -0.359375q-0.21875 -0.234375 -0.3125 -0.546875q-0.09375 -0.3125 -0.09375 -0.671875q0 -0.25 0.015625 -0.4375q0.03125 -0.203125 0.0625 -0.4375l0.90625 -4.375l-1.140625 0l0.1875 -0.921875l1.21875 -0.078125l0.5625 -2.140625l1.046875 0l-0.4375 2.140625l1.96875 0l-0.1875 1.0l-2.0 0l-0.90625 4.4375q-0.046875 0.296875 -0.046875 0.578125q0 0.484375 0.203125 0.734375q0.21875 0.234375 0.78125 0.234375q0.21875 0 0.421875 -0.078125q0.21875 -0.078125 0.390625 -0.171875l0.28125 0.890625q-0.28125 0.125 -0.65625 0.234375q-0.359375 0.109375 -0.828125 0.109375zm5.8188477 -0.1875l1.546875 -7.78125l1.234375 0l-1.5625 7.78125l-1.21875 0zm2.59375 -9.390625q-0.328125 0 -0.5625 -0.1875q-0.234375 -0.1875 -0.234375 -0.53125q0 -0.40625 0.28125 -0.671875q0.28125 -0.265625 0.65625 -0.265625q0.3125 0 0.546875 0.203125q0.234375 0.1875 0.234375 0.546875q0 0.390625 -0.28125 0.65625q-0.28125 0.25 -0.640625 0.25zm1.1983032 9.390625l1.53125 -7.78125l1.015625 0l-0.125 1.171875l0.0625 0q0.671875 -0.578125 1.328125 -0.96875q0.65625 -0.390625 1.40625 -0.390625q0.984375 0 1.40625 0.515625q0.421875 0.515625 0.421875 1.421875q0 0.265625 -0.03125 0.515625q-0.015625 0.234375 -0.09375 0.5625l-0.984375 4.953125l-1.21875 0l0.953125 -4.796875q0.0625 -0.328125 0.09375 -0.515625q0.03125 -0.1875 0.03125 -0.40625q0 -0.578125 -0.265625 -0.875q-0.265625 -0.3125 -0.875 -0.3125q-0.46875 0 -1.046875 0.34375q-0.5625 0.328125 -1.296875 1.0625l-1.09375 5.5l-1.21875 0zm9.743774 -0.921875l-0.296875 1.65625l-0.484375 2.546875l-1.21875 0l2.203125 -11.0625l1.015625 0l-0.109375 1.03125l0.0625 0q0.578125 -0.5 1.25 -0.859375q0.6875 -0.359375 1.4375 -0.359375q1.015625 0 1.625 0.734375q0.609375 0.71875 0.609375 2.078125q0 1.125 -0.359375 2.109375q-0.34375 0.96875 -0.9375 1.6875q-0.578125 0.71875 -1.34375 1.140625q-0.75 0.40625 -1.546875 0.40625q-0.609375 0 -1.09375 -0.3125q-0.484375 -0.3125 -0.78125 -0.796875l-0.03125 0zm3.40625 -6.015625q-0.546875 0 -1.203125 0.34375q-0.640625 0.328125 -1.203125 0.9375l-0.734375 3.703125q0.328125 0.609375 0.71875 0.875q0.40625 0.25 0.875 0.25q0.5625 0 1.109375 -0.34375q0.546875 -0.34375 0.953125 -0.921875q0.40625 -0.578125 0.65625 -1.3125q0.25 -0.75 0.25 -1.5625q0 -1.0 -0.375 -1.484375q-0.375 -0.484375 -1.046875 -0.484375zm11.231873 -0.84375l-1.546875 7.78125l-1.015625 0l0.125 -1.1875l-0.0625 0q-0.640625 0.5625 -1.3125 0.96875q-0.65625 0.40625 -1.375 0.40625q-0.984375 0 -1.421875 -0.515625q-0.421875 -0.515625 -0.421875 -1.421875q0 -0.265625 0.015625 -0.5q0.03125 -0.25 0.125 -0.5625l0.984375 -4.96875l1.234375 0l-0.984375 4.8125q-0.0625 0.3125 -0.09375 0.515625q-0.03125 0.1875 -0.03125 0.390625q0 0.59375 0.265625 0.90625q0.28125 0.296875 0.890625 0.296875q0.46875 0 1.015625 -0.328125q0.5625 -0.34375 1.28125 -1.078125l1.109375 -5.515625l1.21875 0zm3.479248 7.96875q-0.5 0 -0.859375 -0.140625q-0.34375 -0.125 -0.578125 -0.359375q-0.21875 -0.234375 -0.3125 -0.546875q-0.09375 -0.3125 -0.09375 -0.671875q0 -0.25 0.015625 -0.4375q0.03125 -0.203125 0.0625 -0.4375l0.90625 -4.375l-1.140625 0l0.1875 -0.921875l1.21875 -0.078125l0.5625 -2.140625l1.046875 0l-0.4375 2.140625l1.96875 0l-0.1875 1.0l-2.0 0l-0.90625 4.4375q-0.046875 0.296875 -0.046875 0.578125q0 0.484375 0.203125 0.734375q0.21875 0.234375 0.78125 0.234375q0.21875 0 0.421875 -0.078125q0.21875 -0.078125 0.390625 -0.171875l0.28125 0.890625q-0.28125 0.125 -0.65625 0.234375q-0.359375 0.109375 -0.828125 0.109375zm4.856262 0q-0.390625 0 -0.78125 -0.109375q-0.390625 -0.109375 -0.75 -0.3125q-0.359375 -0.203125 -0.65625 -0.46875q-0.296875 -0.265625 -0.484375 -0.578125l0.765625 -0.609375q0.375 0.515625 0.875 0.828125q0.515625 0.3125 1.125 0.3125q0.34375 0 0.625 -0.09375q0.296875 -0.109375 0.53125 -0.28125q0.234375 -0.1875 0.359375 -0.421875q0.140625 -0.234375 0.140625 -0.5q0 -0.203125 -0.078125 -0.375q-0.078125 -0.1875 -0.234375 -0.34375q-0.15625 -0.171875 -0.4375 -0.34375q-0.28125 -0.1875 -0.6875 -0.40625q-0.90625 -0.5 -1.34375 -0.96875q-0.421875 -0.484375 -0.421875 -1.15625q0 -0.515625 0.203125 -0.953125q0.21875 -0.4375 0.578125 -0.734375q0.359375 -0.296875 0.84375 -0.46875q0.5 -0.171875 1.046875 -0.171875q0.71875 0 1.28125 0.296875q0.578125 0.28125 1.0 0.75l-0.703125 0.6875q-0.3125 -0.328125 -0.703125 -0.546875q-0.390625 -0.234375 -0.90625 -0.234375q-0.625 0 -1.0625 0.375q-0.421875 0.359375 -0.421875 0.84375q0 0.25 0.109375 0.4375q0.125 0.1875 0.3125 0.359375q0.1875 0.15625 0.4375 0.296875q0.25 0.140625 0.53125 0.28125q0.515625 0.296875 0.859375 0.5625q0.34375 0.265625 0.5625 0.53125q0.21875 0.25 0.296875 0.53125q0.09375 0.265625 0.09375 0.59375q0 0.546875 -0.21875 1.0q-0.203125 0.4375 -0.609375 0.75q-0.390625 0.3125 -0.921875 0.46875q-0.53125 0.171875 -1.15625 0.171875z" fill-rule="nonzero"/><path fill="#ce1126" d="m803.3202 92.40954l0 0c0 -2.5512848 2.0682373 -4.6195145 4.619507 -4.6195145l142.57202 0c1.2251587 0 2.4001465 0.48670197 3.2664795 1.3530273c0.866333 0.8663254 1.3530273 2.0413208 1.3530273 3.2664871l0 18.477509c0 2.5512848 -2.0682373 4.6195145 -4.619507 4.6195145l-142.57202 0c-2.5512695 0 -4.619507 -2.0682297 -4.619507 -4.6195145z" fill-rule="evenodd"/><path stroke="#073763" stroke-width="2.0" stroke-linejoin="round" stroke-linecap="butt" d="m803.3202 92.40954l0 0c0 -2.5512848 2.0682373 -4.6195145 4.619507 -4.6195145l142.57202 0c1.2251587 0 2.4001465 0.48670197 3.2664795 1.3530273c0.866333 0.8663254 1.3530273 2.0413208 1.3530273 3.2664871l0 18.477509c0 2.5512848 -2.0682373 4.6195145 -4.619507 4.6195145l-142.57202 0c-2.5512695 0 -4.619507 -2.0682297 -4.619507 -4.6195145z" fill-rule="evenodd"/><path fill="#ffffff" d="m817.58813 107.50829l2.09375 -10.5l2.875 0q0.734375 0 1.328125 0.140625q0.609375 0.140625 1.046875 0.4375q0.4375 0.296875 0.671875 0.765625q0.234375 0.453125 0.234375 1.109375q0 0.71875 -0.234375 1.3125q-0.21875 0.59375 -0.640625 1.03125q-0.421875 0.4375 -0.984375 0.734375q-0.546875 0.28125 -1.21875 0.40625l1.828125 4.5625l-1.328125 0l-1.71875 -4.453125l-1.828125 0l-0.875 4.453125l-1.25 0zm2.328125 -5.453125l1.59375 0q1.5 0 2.296875 -0.65625q0.796875 -0.65625 0.796875 -1.78125q0 -0.859375 -0.59375 -1.234375q-0.59375 -0.375 -1.75 -0.375l-1.53125 0l-0.8125 4.046875zm6.4230957 2.390625q0 -1.09375 0.359375 -2.0q0.375 -0.90625 0.953125 -1.546875q0.59375 -0.65625 1.328125 -1.0q0.75 -0.359375 1.515625 -0.359375q0.65625 0 1.109375 0.21875q0.453125 0.21875 0.734375 0.59375q0.296875 0.375 0.421875 0.890625q0.140625 0.515625 0.140625 1.109375q0 0.46875 -0.109375 0.890625q-0.09375 0.40625 -0.171875 0.640625l-5.046875 0q-0.109375 0.75 0.015625 1.28125q0.125 0.53125 0.421875 0.890625q0.296875 0.34375 0.71875 0.515625q0.4375 0.15625 0.953125 0.15625q0.46875 0 0.921875 -0.203125q0.453125 -0.203125 0.828125 -0.46875l0.46875 0.8125q-0.453125 0.34375 -1.09375 0.59375q-0.640625 0.234375 -1.421875 0.234375q-1.390625 0 -2.21875 -0.828125q-0.828125 -0.84375 -0.828125 -2.421875zm1.359375 -1.40625l4.078125 0q0.03125 -0.1875 0.046875 -0.375q0.03125 -0.203125 0.03125 -0.421875q0 -0.328125 -0.078125 -0.640625q-0.078125 -0.3125 -0.265625 -0.546875q-0.171875 -0.25 -0.453125 -0.390625q-0.28125 -0.140625 -0.703125 -0.140625q-0.4375 0 -0.84375 0.171875q-0.40625 0.171875 -0.765625 0.515625q-0.34375 0.328125 -0.625 0.796875q-0.28125 0.453125 -0.421875 1.03125zm8.602295 4.65625q-1.015625 0 -1.625 -0.71875q-0.609375 -0.71875 -0.609375 -2.09375q0 -1.125 0.34375 -2.09375q0.359375 -0.984375 0.953125 -1.703125q0.59375 -0.71875 1.34375 -1.125q0.75 -0.421875 1.5625 -0.421875q0.625 0 1.109375 0.328125q0.5 0.3125 0.765625 0.84375l0.0625 0l0.3125 -0.984375l0.984375 0l-1.546875 7.78125l-1.015625 0l0.125 -1.15625l-0.0625 0q-0.546875 0.609375 -1.265625 0.984375q-0.703125 0.359375 -1.4375 0.359375zm0.453125 -1.015625q0.609375 0 1.234375 -0.359375q0.640625 -0.359375 1.21875 -1.125l0.703125 -3.484375q-0.34375 -0.609375 -0.75 -0.875q-0.390625 -0.265625 -0.84375 -0.265625q-0.578125 0 -1.125 0.34375q-0.53125 0.34375 -0.953125 0.921875q-0.40625 0.5625 -0.65625 1.3125q-0.25 0.75 -0.25 1.546875q0 1.0 0.375 1.5q0.390625 0.484375 1.046875 0.484375zm11.99823 -6.0l0.25 -1.53125l0.609375 -3.03125l1.234375 0l-2.296875 11.390625l-1.015625 0l0.125 -1.15625l-0.0625 0q-0.546875 0.609375 -1.265625 0.984375q-0.703125 0.359375 -1.4375 0.359375q-1.015625 0 -1.625 -0.71875q-0.609375 -0.71875 -0.609375 -2.09375q0 -1.125 0.34375 -2.09375q0.359375 -0.984375 0.953125 -1.703125q0.59375 -0.71875 1.34375 -1.125q0.75 -0.421875 1.5625 -0.421875q0.625 0 1.09375 0.3125q0.46875 0.3125 0.75 0.828125l0.046875 0zm-3.40625 6.0q0.609375 0 1.234375 -0.359375q0.625 -0.359375 1.21875 -1.125l0.703125 -3.484375q-0.34375 -0.609375 -0.75 -0.875q-0.390625 -0.265625 -0.84375 -0.265625q-0.578125 0 -1.125 0.34375q-0.53125 0.34375 -0.953125 0.921875q-0.40625 0.5625 -0.65625 1.3125q-0.25 0.75 -0.25 1.546875q0 1.0 0.375 1.5q0.390625 0.484375 1.046875 0.484375zm11.710144 1.015625q-1.265625 0 -2.015625 -0.828125q-0.75 -0.828125 -0.75 -2.28125q0 -1.109375 0.34375 -2.03125q0.359375 -0.9375 0.953125 -1.59375q0.59375 -0.671875 1.34375 -1.046875q0.75 -0.375 1.546875 -0.375q1.265625 0 2.015625 0.84375q0.765625 0.828125 0.765625 2.28125q0 1.09375 -0.359375 2.03125q-0.359375 0.921875 -0.9375 1.59375q-0.578125 0.65625 -1.34375 1.03125q-0.765625 0.375 -1.5625 0.375zm0.125 -1.015625q0.546875 0 1.046875 -0.3125q0.515625 -0.3125 0.90625 -0.84375q0.40625 -0.53125 0.640625 -1.25q0.25 -0.71875 0.25 -1.53125q0 -1.0625 -0.4375 -1.625q-0.421875 -0.5625 -1.234375 -0.5625q-0.53125 0 -1.046875 0.3125q-0.5 0.296875 -0.90625 0.84375q-0.390625 0.53125 -0.640625 1.25q-0.234375 0.71875 -0.234375 1.53125q0 1.0625 0.421875 1.625q0.421875 0.5625 1.234375 0.5625zm5.2244263 0.828125l1.53125 -7.78125l1.015625 0l-0.125 1.171875l0.0625 0q0.671875 -0.578125 1.328125 -0.96875q0.65625 -0.390625 1.40625 -0.390625q0.984375 0 1.40625 0.515625q0.421875 0.515625 0.421875 1.421875q0 0.265625 -0.03125 0.515625q-0.015625 0.234375 -0.09375 0.5625l-0.984375 4.953125l-1.21875 0l0.953125 -4.796875q0.0625 -0.328125 0.09375 -0.515625q0.03125 -0.1875 0.03125 -0.40625q0 -0.578125 -0.265625 -0.875q-0.265625 -0.3125 -0.875 -0.3125q-0.46875 0 -1.046875 0.34375q-0.5625 0.328125 -1.296875 1.0625l-1.09375 5.5l-1.21875 0zm9.650024 0.1875q-0.515625 0 -0.78125 -0.265625q-0.265625 -0.265625 -0.265625 -0.734375q0 -0.265625 0.09375 -0.671875l1.96875 -9.90625l1.234375 0l-2.0 9.96875q-0.03125 0.125 -0.03125 0.1875q0 0.0625 0 0.109375q0 0.296875 0.265625 0.296875q0.046875 0 0.09375 0q0.0625 -0.015625 0.171875 -0.046875l0.015625 0.9375q-0.15625 0.0625 -0.34375 0.09375q-0.171875 0.03125 -0.421875 0.03125zm2.1242676 3.15625q-0.171875 0 -0.421875 -0.046875q-0.25 -0.046875 -0.46875 -0.171875l0.390625 -0.921875q0.296875 0.15625 0.578125 0.15625q0.59375 0 1.109375 -0.484375q0.515625 -0.484375 0.921875 -1.296875l0.28125 -0.5625l-1.328125 -7.796875l1.21875 0l0.609375 4.375q0.078125 0.53125 0.140625 1.15625q0.078125 0.609375 0.125 1.15625l0.0625 0q0.265625 -0.546875 0.5625 -1.140625q0.296875 -0.609375 0.578125 -1.171875l2.25 -4.375l1.21875 0l-4.578125 8.4375q-0.3125 0.578125 -0.65625 1.0625q-0.328125 0.484375 -0.71875 0.84375q-0.390625 0.359375 -0.859375 0.5625q-0.453125 0.21875 -1.015625 0.21875zm13.193115 -3.15625q-1.015625 0 -1.625 -0.71875q-0.609375 -0.71875 -0.609375 -2.09375q0 -1.125 0.34375 -2.09375q0.359375 -0.984375 0.953125 -1.703125q0.59375 -0.71875 1.34375 -1.125q0.75 -0.421875 1.5625 -0.421875q0.625 0 1.109375 0.328125q0.5 0.3125 0.765625 0.84375l0.0625 0l0.3125 -0.984375l0.984375 0l-1.546875 7.78125l-1.015625 0l0.125 -1.15625l-0.0625 0q-0.546875 0.609375 -1.265625 0.984375q-0.703125 0.359375 -1.4375 0.359375zm0.453125 -1.015625q0.609375 0 1.234375 -0.359375q0.640625 -0.359375 1.21875 -1.125l0.703125 -3.484375q-0.34375 -0.609375 -0.75 -0.875q-0.390625 -0.265625 -0.84375 -0.265625q-0.578125 0 -1.125 0.34375q-0.53125 0.34375 -0.953125 0.921875q-0.40625 0.5625 -0.65625 1.3125q-0.25 0.75 -0.25 1.546875q0 1.0 0.375 1.5q0.390625 0.484375 1.046875 0.484375zm8.232666 1.015625q-0.5 0 -0.859375 -0.140625q-0.34375 -0.125 -0.578125 -0.359375q-0.21875 -0.234375 -0.3125 -0.546875q-0.09375 -0.3125 -0.09375 -0.671875q0 -0.25 0.015625 -0.4375q0.03125 -0.203125 0.0625 -0.4375l0.90625 -4.375l-1.140625 0l0.1875 -0.921875l1.21875 -0.078125l0.5625 -2.140625l1.046875 0l-0.4375 2.140625l1.96875 0l-0.1875 1.0l-2.0 0l-0.90625 4.4375q-0.046875 0.296875 -0.046875 0.578125q0 0.484375 0.203125 0.734375q0.21875 0.234375 0.78125 0.234375q0.21875 0 0.421875 -0.078125q0.21875 -0.078125 0.390625 -0.171875l0.28125 0.890625q-0.28125 0.125 -0.65625 0.234375q-0.359375 0.109375 -0.828125 0.109375zm5.200012 0q-0.5 0 -0.859375 -0.140625q-0.34375 -0.125 -0.578125 -0.359375q-0.21875 -0.234375 -0.3125 -0.546875q-0.09375 -0.3125 -0.09375 -0.671875q0 -0.25 0.015625 -0.4375q0.03125 -0.203125 0.0625 -0.4375l0.90625 -4.375l-1.140625 0l0.1875 -0.921875l1.21875 -0.078125l0.5625 -2.140625l1.046875 0l-0.4375 2.140625l1.96875 0l-0.1875 1.0l-2.0 0l-0.90625 4.4375q-0.046875 0.296875 -0.046875 0.578125q0 0.484375 0.203125 0.734375q0.21875 0.234375 0.78125 0.234375q0.21875 0 0.421875 -0.078125q0.21875 -0.078125 0.390625 -0.171875l0.28125 0.890625q-0.28125 0.125 -0.65625 0.234375q-0.359375 0.109375 -0.828125 0.109375zm2.7468872 -0.1875l1.53125 -7.78125l1.015625 0l-0.1875 1.5l0.0625 0q0.46875 -0.734375 1.078125 -1.203125q0.625 -0.484375 1.34375 -0.484375q0.40625 0 0.734375 0.140625l-0.4375 1.09375q-0.25 -0.125 -0.671875 -0.125q-0.5625 0 -1.171875 0.5q-0.609375 0.484375 -1.109375 1.453125l-0.96875 4.90625l-1.21875 0zm5.471985 0l1.546875 -7.78125l1.234375 0l-1.5625 7.78125l-1.21875 0zm2.59375 -9.390625q-0.328125 0 -0.5625 -0.1875q-0.234375 -0.1875 -0.234375 -0.53125q0 -0.40625 0.28125 -0.671875q0.28125 -0.265625 0.65625 -0.265625q0.3125 0 0.546875 0.203125q0.234375 0.1875 0.234375 0.546875q0 0.390625 -0.28125 0.65625q-0.28125 0.25 -0.640625 0.25zm2.1982422 9.390625l-1.0 0l2.265625 -11.390625l1.234375 0l-0.625 3.03125l-0.34375 1.546875l0.03125 0q0.5625 -0.46875 1.234375 -0.8125q0.671875 -0.34375 1.40625 -0.34375q1.015625 0 1.625 0.71875q0.609375 0.71875 0.609375 2.09375q0 1.125 -0.359375 2.109375q-0.34375 0.96875 -0.9375 1.6875q-0.578125 0.71875 -1.34375 1.140625q-0.75 0.40625 -1.546875 0.40625q-0.625 0 -1.125 -0.3125q-0.484375 -0.328125 -0.75 -0.84375l-0.046875 0l-0.328125 0.96875zm3.75 -6.9375q-0.546875 0 -1.203125 0.34375q-0.640625 0.328125 -1.203125 0.90625l-0.734375 3.703125q0.328125 0.609375 0.71875 0.890625q0.40625 0.265625 0.875 0.265625q0.5625 0 1.109375 -0.34375q0.546875 -0.34375 0.953125 -0.921875q0.40625 -0.578125 0.65625 -1.3125q0.25 -0.75 0.25 -1.5625q0 -1.0 -0.375 -1.484375q-0.375 -0.484375 -1.046875 -0.484375zm11.247925 -0.84375l-1.546875 7.78125l-1.015625 0l0.125 -1.1875l-0.0625 0q-0.640625 0.5625 -1.3125 0.96875q-0.65625 0.40625 -1.375 0.40625q-0.984375 0 -1.421875 -0.515625q-0.421875 -0.515625 -0.421875 -1.421875q0 -0.265625 0.015625 -0.5q0.03125 -0.25 0.125 -0.5625l0.984375 -4.96875l1.234375 0l-0.984375 4.8125q-0.0625 0.3125 -0.09375 0.515625q-0.03125 0.1875 -0.03125 0.390625q0 0.59375 0.265625 0.90625q0.28125 0.296875 0.890625 0.296875q0.46875 0 1.015625 -0.328125q0.5625 -0.34375 1.28125 -1.078125l1.109375 -5.515625l1.21875 0zm3.479248 7.96875q-0.5 0 -0.859375 -0.140625q-0.34375 -0.125 -0.578125 -0.359375q-0.21875 -0.234375 -0.3125 -0.546875q-0.09375 -0.3125 -0.09375 -0.671875q0 -0.25 0.015625 -0.4375q0.03125 -0.203125 0.0625 -0.4375l0.90625 -4.375l-1.140625 0l0.1875 -0.921875l1.21875 -0.078125l0.5625 -2.140625l1.046875 0l-0.4375 2.140625l1.96875 0l-0.1875 1.0l-2.0 0l-0.90625 4.4375q-0.046875 0.296875 -0.046875 0.578125q0 0.484375 0.203125 0.734375q0.21875 0.234375 0.78125 0.234375q0.21875 0 0.421875 -0.078125q0.21875 -0.078125 0.390625 -0.171875l0.28125 0.890625q-0.28125 0.125 -0.65625 0.234375q-0.359375 0.109375 -0.828125 0.109375zm4.856262 0q-0.390625 0 -0.78125 -0.109375q-0.390625 -0.109375 -0.75 -0.3125q-0.359375 -0.203125 -0.65625 -0.46875q-0.296875 -0.265625 -0.484375 -0.578125l0.765625 -0.609375q0.375 0.515625 0.875 0.828125q0.515625 0.3125 1.125 0.3125q0.34375 0 0.625 -0.09375q0.296875 -0.109375 0.53125 -0.28125q0.234375 -0.1875 0.359375 -0.421875q0.140625 -0.234375 0.140625 -0.5q0 -0.203125 -0.078125 -0.375q-0.078125 -0.1875 -0.234375 -0.34375q-0.15625 -0.171875 -0.4375 -0.34375q-0.28125 -0.1875 -0.6875 -0.40625q-0.90625 -0.5 -1.34375 -0.96875q-0.421875 -0.484375 -0.421875 -1.15625q0 -0.515625 0.203125 -0.953125q0.21875 -0.4375 0.578125 -0.734375q0.359375 -0.296875 0.84375 -0.46875q0.5 -0.171875 1.046875 -0.171875q0.71875 0 1.28125 0.296875q0.578125 0.28125 1.0 0.75l-0.703125 0.6875q-0.3125 -0.328125 -0.703125 -0.546875q-0.390625 -0.234375 -0.90625 -0.234375q-0.625 0 -1.0625 0.375q-0.421875 0.359375 -0.421875 0.84375q0 0.25 0.109375 0.4375q0.125 0.1875 0.3125 0.359375q0.1875 0.15625 0.4375 0.296875q0.25 0.140625 0.53125 0.28125q0.515625 0.296875 0.859375 0.5625q0.34375 0.265625 0.5625 0.53125q0.21875 0.25 0.296875 0.53125q0.09375 0.265625 0.09375 0.59375q0 0.546875 -0.21875 1.0q-0.203125 0.4375 -0.609375 0.75q-0.390625 0.3125 -0.921875 0.46875q-0.53125 0.171875 -1.15625 0.171875z" fill-rule="nonzero"/></g></svg>